<svg xmlns="http://www.w3.org/2000/svg" xmlns:xlink="http://www.w3.org/1999/xlink" width="1600" zoomAndPan="magnify" viewBox="0 0 1200 1199.999942" height="1600" preserveAspectRatio="xMidYMid meet" version="1.0"><defs><g/><clipPath id="b72165c7ca"><path d="M 144.667969 642.308594 L 245.800781 642.308594 L 245.800781 738.699219 L 144.667969 738.699219 Z M 144.667969 642.308594 " clip-rule="nonzero"/></clipPath><clipPath id="ec7c2f1990"><path d="M 195.234375 642.308594 L 207.171875 679.125 L 245.800781 679.125 L 214.550781 701.878906 L 226.484375 738.699219 L 195.234375 715.941406 L 163.984375 738.699219 L 175.921875 701.878906 L 144.667969 679.125 L 183.296875 679.125 L 195.234375 642.308594 " clip-rule="nonzero"/></clipPath><clipPath id="9a4ca4e5a2"><path d="M 952.09375 642.308594 L 1053.226562 642.308594 L 1053.226562 738.699219 L 952.09375 738.699219 Z M 952.09375 642.308594 " clip-rule="nonzero"/></clipPath><clipPath id="192d569cee"><path d="M 1002.660156 642.308594 L 1014.597656 679.125 L 1053.226562 679.125 L 1021.976562 701.878906 L 1033.910156 738.699219 L 1002.660156 715.941406 L 971.410156 738.699219 L 983.347656 701.878906 L 952.09375 679.125 L 990.722656 679.125 L 1002.660156 642.308594 " clip-rule="nonzero"/></clipPath></defs><g fill="#ab160b" fill-opacity="1"><g transform="translate(321.913608, 788.46506)"><g><path d="M 86.949219 -182.679688 L 43.328125 -182.679688 L 43.328125 -126.179688 L 72.601562 -126.179688 L 72.601562 -93.683594 L 43.328125 -93.683594 L 43.328125 0 L 11.710938 0 L 11.710938 -215.175781 L 86.949219 -215.175781 Z M 86.949219 -182.679688 "/></g></g></g><g fill="#ab160b" fill-opacity="1"><g transform="translate(410.032242, 788.46506)"><g><path d="M 68.210938 0 L 51.816406 -90.753906 L 43.328125 -90.753906 L 43.328125 0 L 11.710938 0 L 11.710938 -215.175781 L 43.328125 -215.175781 C 81.09375 -215.175781 97.195312 -193.804688 97.195312 -153.113281 C 97.195312 -131.738281 91.632812 -112.417969 79.628906 -104.222656 L 99.828125 0 Z M 43.328125 -120.03125 C 47.71875 -120.03125 53.574219 -120.617188 58.257812 -124.714844 C 62.941406 -128.8125 66.75 -136.71875 66.75 -151.941406 C 66.75 -167.164062 62.941406 -175.359375 58.257812 -179.460938 C 53.574219 -183.558594 47.71875 -183.851562 43.328125 -183.851562 Z M 43.328125 -120.03125 "/></g></g></g><g fill="#ab160b" fill-opacity="1"><g transform="translate(515.71605, 788.46506)"><g><path d="M 11.710938 -215.175781 L 84.019531 -215.175781 L 84.019531 -182.679688 L 43.328125 -182.679688 L 43.328125 -126.179688 L 72.601562 -126.179688 L 72.601562 -91.632812 L 43.328125 -91.632812 L 43.328125 -32.496094 L 84.019531 -32.496094 L 84.019531 0 L 11.710938 0 Z M 11.710938 -215.175781 "/></g></g></g><g fill="#ab160b" fill-opacity="1"><g transform="translate(605.591191, 788.46506)"><g><path d="M 2.925781 0 L 35.421875 -215.175781 L 74.066406 -215.175781 L 106.5625 0 L 75.824219 0 L 69.96875 -43.914062 L 39.523438 -43.914062 L 33.667969 0 Z M 56.5 -145.207031 L 55.625 -150.769531 L 53.867188 -150.769531 L 52.988281 -145.207031 L 43.914062 -77.289062 L 65.578125 -77.289062 Z M 56.5 -145.207031 "/></g></g></g><g fill="#ab160b" fill-opacity="1"><g transform="translate(715.080786, 788.46506)"><g><path d="M 43.328125 -215.175781 L 43.328125 -139.9375 L 44.5 -139.9375 L 45.960938 -143.449219 L 72.3125 -215.175781 L 103.050781 -215.175781 L 74.066406 -144.328125 L 106.855469 0 L 76.117188 0 L 54.160156 -93.683594 L 53.28125 -98.074219 L 52.402344 -98.074219 L 50.648438 -93.683594 L 43.328125 -76.117188 L 43.328125 0 L 11.710938 0 L 11.710938 -215.175781 Z M 43.328125 -215.175781 "/></g></g></g><g fill="#ab160b" fill-opacity="1"><g transform="translate(824.863127, 788.46506)"><g><path d="M 10.539062 -215.175781 L 44.792969 -215.175781 L 36.886719 -57.964844 L 18.445312 -57.964844 Z M 12.296875 -32.496094 L 43.035156 -32.496094 L 43.035156 0 L 12.296875 0 Z M 12.296875 -32.496094 "/></g></g></g><g fill="#ab160b" fill-opacity="1"><g transform="translate(236.916389, 510.103509)"><g><path d="M 43.929688 0 L 33.371094 -58.445312 L 27.902344 -58.445312 L 27.902344 0 L 7.542969 0 L 7.542969 -138.574219 L 27.902344 -138.574219 C 52.222656 -138.574219 62.59375 -124.808594 62.59375 -98.601562 C 62.59375 -84.839844 59.011719 -72.398438 51.28125 -67.117188 L 64.289062 0 Z M 27.902344 -77.300781 C 30.730469 -77.300781 34.5 -77.675781 37.519531 -80.316406 C 40.535156 -82.953125 42.984375 -88.046875 42.984375 -97.847656 C 42.984375 -107.652344 40.535156 -112.933594 37.519531 -115.570312 C 34.5 -118.210938 30.730469 -118.398438 27.902344 -118.398438 Z M 27.902344 -77.300781 "/></g></g></g><g fill="#ab160b" fill-opacity="1"><g transform="translate(304.974806, 510.103509)"><g><path d="M 60.519531 -28.46875 C 60.332031 -22.8125 59.199219 -17.722656 57.125 -13.386719 C 55.429688 -9.613281 52.789062 -6.03125 49.019531 -3.203125 C 45.25 -0.1875 40.15625 1.507812 33.371094 1.507812 C 26.582031 1.507812 21.304688 -0.1875 17.535156 -3.203125 C 13.761719 -6.03125 11.3125 -9.613281 9.613281 -13.386719 C 7.542969 -17.722656 6.410156 -22.8125 6.222656 -28.46875 L 6.222656 -110.105469 C 6.410156 -115.570312 7.542969 -120.660156 9.613281 -124.996094 C 11.3125 -128.769531 13.761719 -132.539062 17.535156 -135.367188 C 21.304688 -138.195312 26.582031 -140.082031 33.371094 -140.082031 C 40.15625 -140.082031 45.25 -138.195312 49.019531 -135.367188 C 52.789062 -132.539062 55.429688 -128.769531 57.125 -124.996094 C 59.199219 -120.660156 60.332031 -115.570312 60.519531 -110.105469 Z M 40.15625 -110.105469 C 40.15625 -113.875 39.402344 -116.515625 37.519531 -118.777344 C 36.574219 -119.71875 35.066406 -120.285156 33.371094 -120.285156 C 29.789062 -120.285156 28.089844 -117.644531 27.335938 -115.195312 C 26.773438 -113.6875 26.582031 -111.988281 26.582031 -110.105469 L 26.582031 -28.46875 C 26.582031 -24.507812 27.527344 -21.871094 29.410156 -19.796875 C 30.355469 -18.851562 31.671875 -18.289062 33.371094 -18.289062 C 36.953125 -18.289062 38.648438 -20.550781 39.402344 -23.378906 C 39.96875 -24.699219 40.15625 -26.394531 40.15625 -28.46875 Z M 40.15625 -110.105469 "/></g></g></g><g fill="#ab160b" fill-opacity="1"><g transform="translate(371.71352, 510.103509)"><g><path d="M 60.519531 -47.511719 L 60.519531 -28.46875 C 60.332031 -22.8125 59.199219 -17.722656 57.125 -13.386719 C 55.429688 -9.613281 52.789062 -6.03125 49.019531 -3.203125 C 45.25 -0.1875 40.15625 1.507812 33.371094 1.507812 C 26.582031 1.507812 21.304688 -0.1875 17.535156 -3.203125 C 13.761719 -6.03125 11.3125 -9.613281 9.613281 -13.386719 C 7.542969 -17.722656 6.410156 -22.8125 6.222656 -28.46875 L 6.222656 -110.105469 C 6.410156 -115.570312 7.542969 -120.660156 9.613281 -124.996094 C 11.3125 -128.769531 13.761719 -132.539062 17.535156 -135.367188 C 21.304688 -138.195312 26.582031 -140.082031 33.371094 -140.082031 C 40.15625 -140.082031 45.25 -138.195312 49.019531 -135.367188 C 52.789062 -132.539062 55.429688 -128.769531 57.125 -124.996094 C 59.199219 -120.660156 60.332031 -115.570312 60.519531 -110.105469 L 60.519531 -91.0625 L 41.476562 -91.0625 L 41.476562 -110.105469 C 41.476562 -113.875 40.535156 -116.515625 38.460938 -118.777344 C 37.519531 -119.71875 35.820312 -120.285156 33.746094 -120.285156 C 30.164062 -120.285156 28.46875 -117.644531 27.527344 -115.195312 C 26.960938 -113.6875 26.773438 -111.988281 26.582031 -110.105469 L 26.582031 -28.46875 C 26.773438 -24.507812 27.902344 -21.871094 29.789062 -19.796875 C 30.730469 -18.851562 32.050781 -18.289062 33.746094 -18.289062 C 38.082031 -18.289062 39.78125 -20.550781 40.722656 -23.378906 C 41.289062 -24.699219 41.476562 -26.394531 41.476562 -28.46875 L 41.476562 -47.511719 Z M 60.519531 -47.511719 "/></g></g></g><g fill="#ab160b" fill-opacity="1"><g transform="translate(436.944022, 510.103509)"><g><path d="M 27.902344 -138.574219 L 27.902344 -90.117188 L 28.65625 -90.117188 L 29.601562 -92.382812 L 46.566406 -138.574219 L 66.363281 -138.574219 L 47.699219 -92.945312 L 68.816406 0 L 49.019531 0 L 34.878906 -60.332031 L 34.3125 -63.160156 L 33.746094 -63.160156 L 32.617188 -60.332031 L 27.902344 -49.019531 L 27.902344 0 L 7.542969 0 L 7.542969 -138.574219 Z M 27.902344 -138.574219 "/></g></g></g><g fill="#ab160b" fill-opacity="1"><g transform="translate(507.641819, 510.103509)"><g/></g></g><g fill="#ab160b" fill-opacity="1"><g transform="translate(536.675047, 510.103509)"><g><path d="M 41.289062 -101.429688 C 41.289062 -105.957031 41.101562 -111.046875 39.78125 -115.003906 C 38.460938 -118.777344 36.386719 -121.414062 33.183594 -121.414062 C 27.902344 -121.226562 26.207031 -115.757812 26.207031 -107.652344 C 26.207031 -102.9375 28.28125 -98.039062 31.296875 -92.757812 C 34.3125 -87.480469 38.273438 -82.011719 42.230469 -76.167969 C 46.945312 -69.191406 51.660156 -62.027344 55.242188 -55.050781 C 58.824219 -48.074219 61.273438 -40.910156 61.273438 -33.371094 C 61.273438 -24.132812 59.765625 -15.460938 55.429688 -9.050781 C 51.09375 -2.640625 44.117188 1.507812 32.992188 1.507812 C 19.984375 1.507812 12.632812 -3.394531 8.484375 -10.933594 C 4.335938 -18.476562 3.394531 -28.46875 3.394531 -38.839844 L 23.378906 -40.722656 C 23.378906 -34.878906 23.566406 -29.035156 25.074219 -24.699219 C 26.394531 -20.171875 28.65625 -17.15625 32.992188 -17.15625 C 39.027344 -17.15625 41.289062 -23.566406 41.289062 -32.429688 C 41.289062 -36.953125 39.027344 -42.230469 36.011719 -47.699219 C 34.3125 -50.339844 32.617188 -53.167969 30.730469 -55.996094 C 26.773438 -61.652344 22.433594 -68.0625 17.910156 -75.035156 C 13.386719 -82.011719 9.992188 -89.175781 7.917969 -96.527344 C 6.789062 -100.113281 6.222656 -103.882812 6.222656 -107.652344 C 6.222656 -115.195312 7.917969 -123.300781 12.253906 -129.523438 C 16.589844 -135.554688 23.191406 -139.890625 32.804688 -140.082031 C 45.058594 -140.269531 52.222656 -135.179688 56.183594 -127.824219 C 60.140625 -120.285156 61.273438 -111.046875 61.273438 -103.316406 Z M 41.289062 -101.429688 "/></g></g></g><g fill="#ab160b" fill-opacity="1"><g transform="translate(601.339966, 510.103509)"><g><path d="M 7.542969 -138.574219 L 54.109375 -138.574219 L 54.109375 -117.644531 L 27.902344 -117.644531 L 27.902344 -81.257812 L 46.757812 -81.257812 L 46.757812 -59.011719 L 27.902344 -59.011719 L 27.902344 -20.925781 L 54.109375 -20.925781 L 54.109375 0 L 7.542969 0 Z M 7.542969 -138.574219 "/></g></g></g><g fill="#ab160b" fill-opacity="1"><g transform="translate(659.217886, 510.103509)"><g><path d="M 41.289062 -101.429688 C 41.289062 -105.957031 41.101562 -111.046875 39.78125 -115.003906 C 38.460938 -118.777344 36.386719 -121.414062 33.183594 -121.414062 C 27.902344 -121.226562 26.207031 -115.757812 26.207031 -107.652344 C 26.207031 -102.9375 28.28125 -98.039062 31.296875 -92.757812 C 34.3125 -87.480469 38.273438 -82.011719 42.230469 -76.167969 C 46.945312 -69.191406 51.660156 -62.027344 55.242188 -55.050781 C 58.824219 -48.074219 61.273438 -40.910156 61.273438 -33.371094 C 61.273438 -24.132812 59.765625 -15.460938 55.429688 -9.050781 C 51.09375 -2.640625 44.117188 1.507812 32.992188 1.507812 C 19.984375 1.507812 12.632812 -3.394531 8.484375 -10.933594 C 4.335938 -18.476562 3.394531 -28.46875 3.394531 -38.839844 L 23.378906 -40.722656 C 23.378906 -34.878906 23.566406 -29.035156 25.074219 -24.699219 C 26.394531 -20.171875 28.65625 -17.15625 32.992188 -17.15625 C 39.027344 -17.15625 41.289062 -23.566406 41.289062 -32.429688 C 41.289062 -36.953125 39.027344 -42.230469 36.011719 -47.699219 C 34.3125 -50.339844 32.617188 -53.167969 30.730469 -55.996094 C 26.773438 -61.652344 22.433594 -68.0625 17.910156 -75.035156 C 13.386719 -82.011719 9.992188 -89.175781 7.917969 -96.527344 C 6.789062 -100.113281 6.222656 -103.882812 6.222656 -107.652344 C 6.222656 -115.195312 7.917969 -123.300781 12.253906 -129.523438 C 16.589844 -135.554688 23.191406 -139.890625 32.804688 -140.082031 C 45.058594 -140.269531 52.222656 -135.179688 56.183594 -127.824219 C 60.140625 -120.285156 61.273438 -111.046875 61.273438 -103.316406 Z M 41.289062 -101.429688 "/></g></g></g><g fill="#ab160b" fill-opacity="1"><g transform="translate(723.882805, 510.103509)"><g><path d="M 41.289062 -101.429688 C 41.289062 -105.957031 41.101562 -111.046875 39.78125 -115.003906 C 38.460938 -118.777344 36.386719 -121.414062 33.183594 -121.414062 C 27.902344 -121.226562 26.207031 -115.757812 26.207031 -107.652344 C 26.207031 -102.9375 28.28125 -98.039062 31.296875 -92.757812 C 34.3125 -87.480469 38.273438 -82.011719 42.230469 -76.167969 C 46.945312 -69.191406 51.660156 -62.027344 55.242188 -55.050781 C 58.824219 -48.074219 61.273438 -40.910156 61.273438 -33.371094 C 61.273438 -24.132812 59.765625 -15.460938 55.429688 -9.050781 C 51.09375 -2.640625 44.117188 1.507812 32.992188 1.507812 C 19.984375 1.507812 12.632812 -3.394531 8.484375 -10.933594 C 4.335938 -18.476562 3.394531 -28.46875 3.394531 -38.839844 L 23.378906 -40.722656 C 23.378906 -34.878906 23.566406 -29.035156 25.074219 -24.699219 C 26.394531 -20.171875 28.65625 -17.15625 32.992188 -17.15625 C 39.027344 -17.15625 41.289062 -23.566406 41.289062 -32.429688 C 41.289062 -36.953125 39.027344 -42.230469 36.011719 -47.699219 C 34.3125 -50.339844 32.617188 -53.167969 30.730469 -55.996094 C 26.773438 -61.652344 22.433594 -68.0625 17.910156 -75.035156 C 13.386719 -82.011719 9.992188 -89.175781 7.917969 -96.527344 C 6.789062 -100.113281 6.222656 -103.882812 6.222656 -107.652344 C 6.222656 -115.195312 7.917969 -123.300781 12.253906 -129.523438 C 16.589844 -135.554688 23.191406 -139.890625 32.804688 -140.082031 C 45.058594 -140.269531 52.222656 -135.179688 56.183594 -127.824219 C 60.140625 -120.285156 61.273438 -111.046875 61.273438 -103.316406 Z M 41.289062 -101.429688 "/></g></g></g><g fill="#ab160b" fill-opacity="1"><g transform="translate(788.547749, 510.103509)"><g><path d="M 7.542969 -138.574219 L 27.902344 -138.574219 L 27.902344 0 L 7.542969 0 Z M 7.542969 -138.574219 "/></g></g></g><g fill="#ab160b" fill-opacity="1"><g transform="translate(823.990928, 510.103509)"><g><path d="M 60.519531 -28.46875 C 60.332031 -22.8125 59.199219 -17.722656 57.125 -13.386719 C 55.429688 -9.613281 52.789062 -6.03125 49.019531 -3.203125 C 45.25 -0.1875 40.15625 1.507812 33.371094 1.507812 C 26.582031 1.507812 21.304688 -0.1875 17.535156 -3.203125 C 13.761719 -6.03125 11.3125 -9.613281 9.613281 -13.386719 C 7.542969 -17.722656 6.410156 -22.8125 6.222656 -28.46875 L 6.222656 -110.105469 C 6.410156 -115.570312 7.542969 -120.660156 9.613281 -124.996094 C 11.3125 -128.769531 13.761719 -132.539062 17.535156 -135.367188 C 21.304688 -138.195312 26.582031 -140.082031 33.371094 -140.082031 C 40.15625 -140.082031 45.25 -138.195312 49.019531 -135.367188 C 52.789062 -132.539062 55.429688 -128.769531 57.125 -124.996094 C 59.199219 -120.660156 60.332031 -115.570312 60.519531 -110.105469 Z M 40.15625 -110.105469 C 40.15625 -113.875 39.402344 -116.515625 37.519531 -118.777344 C 36.574219 -119.71875 35.066406 -120.285156 33.371094 -120.285156 C 29.789062 -120.285156 28.089844 -117.644531 27.335938 -115.195312 C 26.773438 -113.6875 26.582031 -111.988281 26.582031 -110.105469 L 26.582031 -28.46875 C 26.582031 -24.507812 27.527344 -21.871094 29.410156 -19.796875 C 30.355469 -18.851562 31.671875 -18.289062 33.371094 -18.289062 C 36.953125 -18.289062 38.648438 -20.550781 39.402344 -23.378906 C 39.96875 -24.699219 40.15625 -26.394531 40.15625 -28.46875 Z M 40.15625 -110.105469 "/></g></g></g><g fill="#ab160b" fill-opacity="1"><g transform="translate(890.729642, 510.103509)"><g><path d="M 29.035156 -72.207031 L 27.335938 -78.617188 L 26.207031 -78.617188 L 26.207031 0 L 7.542969 0 L 7.542969 -138.574219 L 25.640625 -138.574219 L 45.4375 -66.363281 L 47.132812 -59.953125 L 48.265625 -59.953125 L 48.265625 -138.574219 L 66.929688 -138.574219 L 66.929688 0 L 48.832031 0 Z M 29.035156 -72.207031 "/></g></g></g><g clip-path="url(#b72165c7ca)"><g clip-path="url(#ec7c2f1990)"><path fill="#ffffff" d="M 144.667969 642.308594 L 245.800781 642.308594 L 245.800781 738.699219 L 144.667969 738.699219 Z M 144.667969 642.308594 " fill-opacity="1" fill-rule="nonzero"/></g></g><path stroke-linecap="butt" transform="matrix(0.749971, 0, 0, 0.75, 147.034732, 526.605869)" fill="none" stroke-linejoin="miter" d="M 0.000566201 10.999468 L 1211.063153 10.999468 " stroke="#ffffff" stroke-width="22" stroke-opacity="1" stroke-miterlimit="4"/><g clip-path="url(#9a4ca4e5a2)"><g clip-path="url(#192d569cee)"><path fill="#ffffff" d="M 952.09375 642.308594 L 1053.226562 642.308594 L 1053.226562 738.699219 L 952.09375 738.699219 Z M 952.09375 642.308594 " fill-opacity="1" fill-rule="nonzero"/></g></g></svg>