<svg xmlns="http://www.w3.org/2000/svg" xmlns:xlink="http://www.w3.org/1999/xlink" width="1600" zoomAndPan="magnify" viewBox="0 0 1200 1199.999942" height="1600" preserveAspectRatio="xMidYMid meet" version="1.0"><defs><g/></defs><g fill="#25e781" fill-opacity="1"><g transform="translate(176.502322, 590.348069)"><g><path d="M 5.035156 -134.957031 C 2.394531 -129.199219 0.875 -126.269531 0.289062 -126.109375 C -0.296875 -125.953125 -1.023438 -127.855469 -2.085938 -131.769531 C -2.242188 -132.355469 -2.5625 -133.53125 -2.667969 -133.921875 C -3.25 -136.074219 -4.113281 -140.042969 -4.644531 -142 C -3.183594 -142.8125 -0.800781 -144.089844 1.246094 -145.066406 C 5.429688 -147.457031 8.011719 -148.789062 9.183594 -149.105469 C 9.769531 -149.265625 10.214844 -149.175781 10.320312 -148.785156 C 10.320312 -148.785156 10.230469 -148.339844 10.195312 -147.699219 C 9.320312 -144.730469 7.585938 -140.269531 4.945312 -134.511719 Z M -35.617188 -143.902344 C -35.902344 -143.402344 -36.136719 -142.710938 -35.976562 -142.125 C -35.765625 -141.339844 -34.71875 -140.574219 -32.832031 -139.824219 C -30.699219 -138.933594 -29.246094 -137.433594 -28.519531 -135.53125 C -27.792969 -133.628906 -26.042969 -127.167969 -23.074219 -116.210938 C -19.683594 -103.6875 -14.542969 -84.703125 -7.847656 -59.210938 C -6.628906 -54.710938 -5.089844 -49.035156 -3.179688 -41.988281 C 0.371094 -28.878906 5.820312 -14.179688 13.226562 2.300781 C 14.609375 5.074219 14.609375 5.074219 15.226562 6.589844 C 15.226562 6.589844 14.433594 3.652344 12.84375 -2.21875 C 10.441406 -11.859375 9.953125 -16.769531 11.125 -17.085938 C 11.515625 -17.191406 12.015625 -16.90625 12.671875 -16.035156 C 13.539062 -14.378906 14.371094 -12.085938 15.113281 -9.34375 C 17.5 -0.539062 20.195312 3.984375 23.144531 4.023438 C 24.816406 3.992188 26.414062 5.238281 27.691406 7.621094 C 28.824219 10.257812 29.730469 11.273438 30.707031 11.007812 C 31.6875 10.742188 28.261719 -3.453125 20.628906 -31.632812 C 12.785156 -60.597656 9.054688 -75.132812 9.644531 -75.289062 C 10.621094 -75.554688 15.75 -69.804688 25.082031 -57.835938 C 35.164062 -45.445312 41.195312 -38.675781 43.382812 -37.585938 C 46.117188 -36.019531 49.511719 -33.574219 53.363281 -30.207031 C 57.164062 -27.035156 59.257812 -25.503906 59.847656 -25.664062 C 60.042969 -25.714844 59.988281 -25.910156 59.933594 -26.105469 C 59.777344 -26.695312 58.816406 -27.90625 57.007812 -29.9375 C 54.59375 -32.644531 53.226562 -34.582031 52.910156 -35.757812 C 52.804688 -36.148438 52.945312 -36.398438 53.339844 -36.503906 C 54.121094 -36.714844 55.757812 -36.109375 58.347656 -34.289062 C 61.9375 -31.902344 64.316406 -30.867188 65.492188 -31.183594 C 65.6875 -31.238281 65.832031 -31.484375 65.832031 -31.484375 C 66.027344 -31.539062 66.222656 -31.589844 66.222656 -31.589844 C 66.558594 -31.894531 67.148438 -32.050781 67.539062 -32.15625 C 68.125 -32.316406 68.960938 -32.332031 69.957031 -31.761719 C 70.898438 -31.386719 71.734375 -31.402344 72.515625 -31.617188 C 73.105469 -31.773438 73.390625 -32.273438 73.125 -33.25 C 72.488281 -35.597656 68.851562 -40.496094 62.265625 -47.746094 C 59.960938 -50.058594 53.214844 -57.894531 41.984375 -71.449219 C 32.613281 -82.773438 25.320312 -91.089844 20.296875 -96.449219 C 18.183594 -98.820312 13.710938 -103.699219 11.597656 -106.070312 C 13.117188 -109 15.722656 -114.117188 17.753906 -118.238281 C 22.785156 -127.582031 26 -134.335938 27.394531 -138.492188 C 28.785156 -142.652344 29.292969 -146.988281 28.910156 -151.507812 C 28.664062 -153.960938 28.171875 -156.558594 27.429688 -159.296875 C 24.140625 -171.433594 15.648438 -175.644531 1.949219 -171.933594 C -4.117188 -170.289062 -10.648438 -167.257812 -17.839844 -162.789062 C -30.761719 -154.667969 -38.222656 -148.867188 -39.917969 -145.046875 Z M -35.617188 -143.902344 "/></g></g></g><g fill="#25e781" fill-opacity="1"><g transform="translate(248.393462, 570.041773)"><g><path d="M 62.847656 -72.28125 C 64.378906 -63.902344 64.457031 -56.703125 63.121094 -50.484375 C 61.945312 -44.5 59.210938 -40.289062 55.078125 -38.089844 C 52.996094 -37.09375 51.035156 -36.527344 49.441406 -36.238281 C 40.664062 -34.632812 32.9375 -38.582031 26.019531 -48.242188 C 18.050781 -59.152344 13.144531 -70.207031 11.105469 -81.378906 C 9.136719 -92.148438 9.761719 -103.390625 13.015625 -114.910156 C 15.367188 -122.347656 17.722656 -127.515625 20.039062 -130.621094 C 20.855469 -131.800781 22.722656 -133.996094 23.574219 -134.976562 C 25.222656 -133.832031 27.855469 -131.839844 30.015625 -130.175781 C 33.625 -127.332031 37.691406 -123.125 41.976562 -117.726562 C 52.757812 -103.824219 59.625 -88.796875 62.613281 -72.445312 Z M 58.292969 -123.179688 C 63.03125 -116.417969 65.535156 -111.726562 65.972656 -109.332031 C 66.082031 -108.734375 66.15625 -108.335938 65.957031 -108.296875 C 65.160156 -108.152344 62.273438 -111.539062 57.296875 -118.464844 C 52.359375 -125.1875 47.40625 -130.878906 42.269531 -135.296875 C 37.878906 -139.03125 35.609375 -141.296875 35.425781 -142.292969 C 35.28125 -143.089844 36.003906 -143.636719 37.601562 -143.925781 C 39.195312 -144.21875 41.753906 -142.625 45.277344 -139.144531 C 49.269531 -135.339844 53.515625 -130.140625 58.253906 -123.378906 Z M 14.816406 -155.839844 C 9.902344 -152.265625 5.625 -148.597656 2.21875 -144.675781 C -1.910156 -140.210938 -5.332031 -132.992188 -8.042969 -123.015625 C -10.539062 -114.109375 -12.054688 -106.621094 -12.632812 -100.742188 C -13.207031 -94.867188 -12.839844 -88.339844 -11.527344 -81.160156 C -10.90625 -77.769531 -10.433594 -75.175781 -10.105469 -73.382812 C -5.628906 -53.382812 2.507812 -38.175781 14.140625 -27.519531 C 25.773438 -16.867188 38.671875 -12.835938 52.832031 -15.421875 C 53.03125 -15.457031 53.03125 -15.457031 53.230469 -15.496094 C 64 -17.460938 72.15625 -22.457031 77.734375 -30.277344 C 83.152344 -37.859375 85.898438 -47.636719 85.945312 -59.804688 C 85.957031 -67.640625 85.386719 -74.128906 84.402344 -79.515625 C 82.964844 -86.261719 80.730469 -92.859375 77.460938 -99.476562 C 74.191406 -106.09375 71.101562 -111.710938 67.960938 -116.496094 C 62.535156 -124.777344 55.671875 -133.007812 47.378906 -141.179688 C 45.417969 -142.882812 44.402344 -143.933594 44.328125 -144.332031 C 44.21875 -144.929688 44.707031 -145.636719 45.757812 -146.652344 C 47.335938 -148.179688 48.421875 -148.996094 49.019531 -149.105469 C 49.621094 -149.214844 49.710938 -149.847656 49.492188 -151.046875 C 49.164062 -152.839844 47.113281 -156.175781 43.371094 -160.851562 C 42.753906 -161.972656 42.261719 -163.535156 41.898438 -165.527344 C 41.789062 -166.125 40.757812 -166.144531 38.5625 -165.742188 C 35.769531 -165.234375 32.453125 -164.214844 28.609375 -162.6875 C 24.964844 -161.199219 20.667969 -158.765625 15.757812 -155.1875 Z M 14.816406 -155.839844 "/></g></g></g><g fill="#25e781" fill-opacity="1"><g transform="translate(336.015089, 553.997048)"><g><path d="M 5.652344 -158.089844 C 1.335938 -154.394531 -0.859375 -151.929688 -0.917969 -150.5 C -0.835938 -149.691406 -1.601562 -147.167969 -3.191406 -142.730469 C -7.296875 -130.902344 -8.230469 -113.894531 -5.992188 -91.707031 C -4.8125 -80.007812 -2.785156 -67.984375 0.09375 -55.640625 C 1.589844 -48.863281 2.90625 -43.902344 4.261719 -40.574219 C 5.59375 -37.449219 7.859375 -33.195312 11.253906 -27.828125 C 15.859375 -20.550781 19.917969 -14.644531 23.230469 -10.085938 C 26.058594 -6.296875 28.28125 -4.484375 29.691406 -4.625 C 30.097656 -4.667969 30.257812 -5.089844 30.214844 -5.492188 C 30.195312 -5.695312 30.132812 -6.300781 29.832031 -7.289062 C 29.527344 -8.277344 29.464844 -8.882812 29.464844 -8.882812 C 29.425781 -9.285156 29.628906 -9.304688 29.828125 -9.328125 C 30.636719 -9.40625 32.089844 -9.148438 34.1875 -8.542969 C 37.335938 -7.636719 41.429688 -7.441406 46.273438 -7.929688 C 49.5 -8.253906 52.285156 -8.941406 54.644531 -9.792969 C 57.367188 -11.085938 60.550781 -13.851562 64.179688 -18.292969 C 67.804688 -22.734375 70.0625 -26.632812 70.945312 -29.980469 C 71.851562 -33.128906 72.273438 -35.003906 72.191406 -35.8125 C 72.050781 -37.222656 70.578125 -37.6875 67.753906 -37.402344 C 65.535156 -37.179688 64.082031 -37.4375 63.171875 -38.367188 C 63.132812 -38.769531 62.503906 -38.910156 61.296875 -38.789062 C 60.890625 -38.746094 60.285156 -38.6875 59.480469 -38.605469 C 58.671875 -38.523438 57.867188 -38.441406 57.460938 -38.402344 C 56.253906 -38.28125 55.625 -38.421875 55.585938 -38.824219 C 55.503906 -39.628906 55.261719 -40.011719 54.65625 -39.953125 C 53.425781 -40.03125 52.699219 -39.144531 52.300781 -37.066406 C 52.058594 -35.410156 51.011719 -33.675781 49.136719 -32.058594 C 47.261719 -30.445312 45.507812 -29.65625 43.894531 -29.492188 C 43.488281 -29.453125 43.085938 -29.410156 42.664062 -29.574219 C 37.253906 -30.65625 32.042969 -37.875 27.027344 -51.226562 C 22.015625 -64.578125 18.632812 -79.925781 16.882812 -97.273438 C 16.472656 -101.308594 16.167969 -104.335938 15.964844 -106.351562 C 15.066406 -119.304688 15.5625 -128.523438 17.230469 -134.195312 C 18.902344 -139.863281 22.023438 -143.234375 26.804688 -144.328125 C 27.613281 -144.410156 27.613281 -144.410156 27.8125 -144.429688 C 30.03125 -144.65625 32.191406 -143.445312 34.113281 -140.582031 C 37.203125 -136.207031 39.039062 -134.152344 39.847656 -134.234375 C 40.25 -134.273438 41.015625 -134.757812 42.125 -135.890625 C 43.980469 -137.707031 45.351562 -138.253906 46.199219 -137.929688 C 46.421875 -137.75 46.621094 -137.769531 46.824219 -137.789062 C 47.226562 -137.832031 48.175781 -138.539062 49.445312 -140.09375 C 50.714844 -141.648438 51.660156 -142.355469 52.265625 -142.414062 C 52.671875 -142.457031 52.894531 -142.273438 52.894531 -142.273438 C 53.113281 -142.09375 53.316406 -142.113281 53.519531 -142.132812 C 54.125 -142.195312 54.265625 -142.820312 54.140625 -144.03125 C 53.9375 -146.046875 52.867188 -148.589844 50.90625 -151.855469 C 45.613281 -159.878906 40.023438 -164.816406 34.128906 -166.667969 C 30.980469 -167.574219 28.296875 -167.914062 26.28125 -167.710938 C 24.0625 -167.488281 20.894531 -166.554688 16.601562 -164.695312 C 13.453125 -163.5625 9.824219 -161.160156 5.511719 -157.464844 Z M 5.652344 -158.089844 "/></g></g></g><g fill="#25e781" fill-opacity="1"><g transform="translate(403.354773, 546.739264)"><g><path d="M 9.605469 -162.957031 C 7.171875 -162.886719 5.765625 -162.4375 5.382812 -161.617188 C 5.003906 -160.792969 4 -160.359375 2.378906 -160.308594 C 1.570312 -160.285156 0.972656 -159.863281 0.800781 -158.84375 C 0.628906 -157.824219 0.6875 -155.796875 0.78125 -152.554688 C 0.8125 -151.542969 0.871094 -149.515625 0.902344 -148.503906 C 0.9375 -147.285156 0.996094 -145.257812 1.039062 -143.839844 C 1.378906 -132.289062 1.648438 -116.273438 1.640625 -95.785156 C 1.59375 -83.613281 1.988281 -70.238281 2.414062 -55.851562 C 3.414062 -21.804688 4.523438 -4.796875 5.738281 -4.835938 C 5.941406 -4.839844 6.449219 -8.304688 7.257812 -15.222656 C 8.230469 -23.570312 9.125 -27.652344 9.734375 -27.667969 C 10.542969 -27.691406 11.042969 -24.460938 11.242188 -17.773438 C 11.402344 -12.304688 11.503906 -8.859375 11.75 -7.445312 C 11.992188 -6.03125 12.828125 -5.246094 14.054688 -4.875 C 15.890625 -4.523438 16.75 -2.925781 16.828125 -0.292969 C 16.910156 2.542969 17.15625 3.957031 17.761719 3.9375 C 18.777344 3.910156 19.699219 0.839844 20.535156 -5.269531 C 21.34375 -12.191406 22.011719 -23.972656 22.339844 -40.414062 C 23.078125 -63.558594 23.953125 -75.144531 24.765625 -75.167969 C 25.167969 -75.179688 25.378906 -74.984375 25.59375 -74.585938 C 26.4375 -73.394531 28.40625 -68.582031 31.492188 -60.15625 C 40.28125 -37.289062 46.347656 -24.082031 49.488281 -20.726562 C 52 -18.164062 54.53125 -14.789062 57.097656 -10.402344 C 59.648438 -6.421875 61.125 -4.4375 61.734375 -4.453125 C 61.9375 -4.460938 61.929688 -4.664062 61.917969 -5.066406 C 61.894531 -5.878906 61.238281 -7.480469 59.9375 -10.285156 C 58.199219 -14.289062 57.3125 -16.898438 57.269531 -18.320312 C 57.246094 -19.128906 57.4375 -19.539062 57.839844 -19.550781 C 58.652344 -19.578125 60.332031 -17.597656 62.882812 -13.617188 C 65.019531 -10.027344 66.894531 -8.257812 68.515625 -8.304688 C 68.515625 -8.304688 68.71875 -8.3125 68.71875 -8.3125 C 70.335938 -8.5625 71.96875 -8.203125 73.617188 -7.238281 C 74.453125 -6.453125 75.074219 -6.0625 75.480469 -6.074219 C 76.085938 -6.09375 76.277344 -6.503906 76.246094 -7.519531 C 76.1875 -9.546875 75.078125 -12.757812 72.921875 -17.15625 C 71.617188 -20.160156 65.964844 -32.976562 56.171875 -55.609375 C 46.378906 -78.238281 40.0625 -92.859375 37.238281 -99.269531 C 36.367188 -101.269531 34.832031 -105.28125 34.164062 -107.292969 C 34.925781 -108.9375 36.265625 -111.613281 37.417969 -113.878906 C 39.320312 -118.195312 43.808594 -124.207031 50.882812 -131.921875 C 56.980469 -138.386719 59.90625 -142.328125 59.863281 -143.746094 C 59.851562 -144.152344 59.839844 -144.558594 59.429688 -144.75 C 58.578125 -146.144531 57.34375 -146.714844 55.925781 -146.671875 C 54.707031 -146.636719 54.082031 -147.226562 54.039062 -148.648438 C 54 -150.066406 52.765625 -150.636719 50.332031 -150.566406 C 47.902344 -150.496094 46.667969 -151.066406 46.632812 -152.28125 C 46.589844 -153.699219 46.167969 -154.296875 45.355469 -154.273438 C 44.746094 -154.253906 40.605469 -150.28125 32.726562 -142.339844 C 25.234375 -135.019531 21.078125 -131.449219 20.269531 -131.425781 C 19.863281 -131.414062 19.503906 -136.675781 19.195312 -147.214844 C 18.910156 -156.941406 18.140625 -162.398438 17.089844 -163.582031 C 16.046875 -164.566406 15.222656 -164.949219 14.414062 -164.925781 C 13.804688 -164.90625 13.210938 -164.484375 12.828125 -163.660156 C 12.453125 -162.636719 11.046875 -162.1875 8.613281 -162.117188 Z M 9.605469 -162.957031 "/></g></g></g><g fill="#25e781" fill-opacity="1"><g transform="translate(475.093355, 544.778149)"><g/></g></g><g fill="#25e781" fill-opacity="1"><g transform="translate(515.139751, 545.043688)"><g><path d="M 36.953125 -145.128906 C 32.085938 -140.671875 28.867188 -136.476562 27.082031 -132.359375 C 25.078125 -128.054688 23.933594 -124.289062 23.632812 -120.855469 C 23.277344 -116.816406 24.097656 -112.265625 26.097656 -107.207031 C 27.761719 -102.992188 30.085938 -99.328125 33.050781 -96.011719 C 36.019531 -92.699219 40.582031 -89.042969 46.523438 -84.859375 C 51.894531 -81.132812 55.6875 -77.949219 57.695312 -75.332031 C 63.019531 -68.757812 65.15625 -60.632812 64.324219 -51.140625 C 63.898438 -46.292969 62.738281 -42.324219 60.820312 -39.03125 C 59.121094 -35.925781 56.230469 -33.125 51.925781 -30.449219 C 47.621094 -27.773438 44.0625 -26.664062 41.234375 -26.910156 C 38.8125 -27.125 35.738281 -29.222656 32.222656 -33.195312 C 28.703125 -37.167969 26.984375 -40.78125 26.847656 -43.84375 C 26.320312 -47.148438 25.671875 -49.035156 24.902344 -49.511719 C 24.714844 -49.730469 24.714844 -49.730469 24.515625 -49.75 C 24.109375 -49.785156 24.074219 -49.378906 24.003906 -48.570312 C 23.667969 -44.734375 24.875 -39.945312 27.8125 -33.992188 C 29.679688 -29.757812 31.890625 -27.121094 34.226562 -25.898438 C 36.359375 -24.691406 37.484375 -23.578125 37.394531 -22.566406 C 37.359375 -22.164062 36.734375 -22.015625 35.523438 -22.121094 C 32.695312 -22.367188 29.457031 -24.890625 25.808594 -29.6875 C 22.15625 -34.488281 20.105469 -38.941406 19.652344 -43.050781 C 19.425781 -45.105469 18.191406 -47.25 15.941406 -49.484375 C 13.660156 -51.3125 12.699219 -54.246094 13.050781 -58.285156 C 13.40625 -62.324219 13.179688 -64.378906 12.371094 -64.449219 C 11.5625 -64.519531 10.78125 -62.554688 9.820312 -58.566406 C 9.40625 -56.160156 9.246094 -54.34375 9.140625 -53.132812 C 8.609375 -47.074219 9.289062 -40.90625 11.179688 -34.636719 C 13.074219 -28.363281 15.859375 -23.03125 19.546875 -18.636719 C 25.84375 -11.570312 33.640625 -7.632812 42.933594 -6.816406 C 50.203125 -6.179688 57.449219 -7.578125 64.671875 -11.015625 C 71.691406 -14.46875 77.4375 -19.664062 81.710938 -26.617188 C 85.984375 -33.566406 88.492188 -41.285156 89.21875 -49.566406 C 90.125 -59.867188 88.164062 -70.011719 83.324219 -79.796875 C 78.28125 -89.601562 70.859375 -97.785156 61.039062 -104.140625 C 51.03125 -110.71875 46.242188 -116.429688 46.667969 -121.277344 C 46.898438 -123.902344 48.539062 -126.40625 51.617188 -128.984375 C 54.675781 -131.363281 57.003906 -132.378906 58.617188 -132.238281 C 60.4375 -132.078125 63.175781 -130.820312 66.617188 -128.277344 C 69.871094 -125.957031 72.207031 -124.734375 73.824219 -124.59375 C 75.238281 -124.46875 76.554688 -125.574219 77.59375 -128.128906 C 78.648438 -130.886719 79.582031 -132.230469 80.390625 -132.15625 C 81.195312 -132.085938 81.6875 -133.0625 81.882812 -135.285156 C 82.097656 -137.707031 82.605469 -138.882812 83.636719 -138.996094 C 83.835938 -138.980469 83.855469 -139.179688 83.855469 -139.179688 C 83.90625 -139.785156 82.03125 -141.578125 78.222656 -144.558594 C 74.410156 -147.539062 71.136719 -149.660156 68.398438 -150.917969 C 65.640625 -151.972656 62.851562 -152.625 60.023438 -152.875 C 57.195312 -153.121094 53.925781 -153 50.222656 -152.511719 C 46.699219 -151.804688 42.613281 -149.3125 37.746094 -144.855469 Z M 36.953125 -145.128906 "/></g></g></g><g fill="#25e781" fill-opacity="1"><g transform="translate(590.232374, 551.399086)"><g><path d="M 25.65625 10.292969 C 26.007812 8.089844 26.332031 6.089844 26.390625 4.457031 C 26.609375 1.820312 27.078125 -3.648438 27.296875 -6.28125 C 30.066406 -5.628906 34.640625 -4.6875 38.410156 -3.875 C 39.011719 -3.777344 40.613281 -3.519531 43.214844 -3.101562 C 45.816406 -2.683594 47.21875 -2.457031 47.417969 -2.425781 C 51.421875 -1.777344 55.1875 -2.199219 58.710938 -3.683594 C 62.902344 -5.476562 65.058594 -7.386719 65.378906 -9.386719 C 65.539062 -10.390625 64.804688 -10.917969 63.203125 -11.175781 C 62.003906 -11.371094 60.761719 -12.597656 59.484375 -14.855469 C 58.203125 -17.117188 56.964844 -18.34375 55.765625 -18.535156 C 53.960938 -18.824219 53.457031 -19.523438 54.085938 -20.859375 C 54.613281 -21.59375 54.679688 -21.996094 54.308594 -22.261719 C 53.941406 -22.523438 52.941406 -22.6875 51.308594 -22.746094 C 51.109375 -22.777344 50.90625 -22.808594 50.707031 -22.839844 C 50.707031 -22.839844 50.308594 -22.90625 50.105469 -22.9375 C 48.707031 -23.164062 46.070312 -23.382812 42.371094 -23.363281 C 38.671875 -23.34375 35.46875 -23.859375 32.730469 -24.710938 C 32.53125 -24.742188 32.253906 -26.839844 32.066406 -30.773438 C 31.875 -34.703125 32.933594 -42.542969 35.003906 -54.121094 C 35.398438 -55.289062 36.152344 -57.425781 36.515625 -58.394531 C 40.148438 -58.015625 46.21875 -57.449219 51.054688 -56.875 C 60.726562 -55.726562 66.429688 -55.425781 68.128906 -55.769531 C 69.792969 -55.910156 70.722656 -56.582031 70.917969 -57.78125 C 71.109375 -58.984375 70.703125 -60.28125 69.496094 -61.707031 C 68.085938 -63.167969 67.878906 -64.433594 68.472656 -65.570312 C 68.472656 -65.570312 68.507812 -65.769531 68.539062 -65.96875 C 68.539062 -65.96875 68.738281 -65.9375 68.769531 -66.136719 C 68.902344 -66.9375 68.261719 -68.066406 66.851562 -69.527344 C 65.445312 -70.984375 64.804688 -72.117188 64.933594 -72.917969 C 64.933594 -72.917969 64.96875 -73.117188 65.199219 -73.285156 C 65.199219 -73.285156 65.199219 -73.285156 65.230469 -73.484375 C 65.527344 -74.054688 65.394531 -74.484375 64.824219 -74.78125 C 64.257812 -75.078125 62.855469 -75.304688 60.855469 -75.628906 C 58.851562 -75.949219 54.878906 -76.792969 48.773438 -78.394531 C 47.203125 -78.851562 43.863281 -79.800781 42.296875 -80.257812 C 42.910156 -84.0625 43.941406 -90.46875 44.777344 -95.671875 C 46.488281 -106.28125 47.957031 -111.589844 49.222656 -111.796875 C 49.425781 -111.765625 49.625 -111.730469 50.023438 -111.667969 C 53.027344 -111.183594 57.132812 -109.90625 62.3125 -107.632812 C 67.722656 -105.53125 71.230469 -104.347656 72.832031 -104.089844 C 73.632812 -103.960938 74.265625 -104.066406 74.496094 -104.234375 C 74.960938 -104.570312 76.195312 -104.578125 78.199219 -104.253906 C 79 -104.125 80.199219 -103.929688 81.96875 -103.441406 C 83.9375 -102.917969 85.140625 -102.726562 85.539062 -102.660156 C 86.941406 -102.433594 87.574219 -102.539062 87.636719 -102.9375 C 87.703125 -103.339844 86.429688 -104.363281 83.789062 -105.816406 C 81.117188 -107.070312 79.875 -108.296875 80.035156 -109.296875 C 80.164062 -110.097656 81.632812 -110.273438 84.433594 -109.820312 C 87.234375 -109.371094 88.734375 -109.742188 88.960938 -111.144531 C 89.183594 -112.546875 89.945312 -113.449219 91.414062 -113.625 C 93.078125 -113.765625 93.777344 -114.269531 93.90625 -115.070312 C 94.226562 -117.074219 88.609375 -120.441406 77.050781 -125.179688 C 57.640625 -133.441406 47.28125 -137.984375 46.210938 -138.980469 C 45.539062 -139.910156 42.230469 -141.058594 36.324219 -142.625 C 33.953125 -143.210938 29.613281 -144.320312 27.445312 -144.875 C 27.226562 -142.242188 26.917969 -137.773438 26.539062 -134.140625 C 25.914062 -126.4375 25.046875 -119.796875 24.144531 -114.191406 C 22.792969 -105.785156 19.871094 -91.472656 14.980469 -71.3125 C 14.625 -69.109375 14.269531 -66.90625 13.882812 -64.507812 C 11.078125 -47.089844 8.820312 -26.714844 7.148438 -3.570312 C 7.207031 7.527344 7.539062 13.125 8.339844 13.253906 C 8.738281 13.320312 9.101562 12.351562 9.421875 10.347656 C 9.519531 9.746094 9.875 7.546875 10.253906 3.910156 C 10.511719 2.308594 10.835938 0.308594 11.222656 -2.09375 C 11.929688 -6.496094 12.6875 -8.636719 13.488281 -8.507812 C 14.289062 -8.378906 14.667969 -5.644531 14.597656 -0.113281 C 14.613281 8.71875 16.136719 13.277344 19.339844 13.792969 C 20.140625 13.921875 20.8125 14.851562 21.523438 16.816406 C 22.234375 18.777344 22.90625 19.707031 23.507812 19.804688 C 24.105469 19.902344 24.53125 18.53125 25.050781 15.328125 Z M 25.65625 10.292969 "/></g></g></g><g fill="#25e781" fill-opacity="1"><g transform="translate(654.932602, 561.222716)"><g><path d="M 57.453125 -138.300781 C 51.992188 -134.589844 48.203125 -130.902344 45.84375 -127.085938 C 43.242188 -123.117188 41.566406 -119.554688 40.773438 -116.199219 C 39.84375 -112.253906 40 -107.632812 41.25 -102.335938 C 42.292969 -97.925781 44.066406 -93.964844 46.523438 -90.257812 C 48.980469 -86.554688 52.972656 -82.277344 58.25 -77.28125 C 63.027344 -72.820312 66.324219 -69.125 67.933594 -66.246094 C 72.257812 -58.972656 73.203125 -50.625 71.011719 -41.351562 C 69.894531 -36.617188 68.171875 -32.855469 65.804688 -29.875 C 63.675781 -27.042969 60.410156 -24.691406 55.765625 -22.660156 C 51.121094 -20.632812 47.441406 -20.046875 44.679688 -20.699219 C 42.308594 -21.257812 39.574219 -23.777344 36.664062 -28.214844 C 33.75 -32.652344 32.570312 -36.472656 32.875 -39.527344 C 32.832031 -42.871094 32.460938 -44.832031 31.765625 -45.414062 C 31.613281 -45.65625 31.613281 -45.65625 31.417969 -45.703125 C 31.023438 -45.796875 30.929688 -45.402344 30.742188 -44.613281 C 29.859375 -40.863281 30.363281 -35.953125 32.414062 -29.636719 C 33.652344 -25.175781 35.460938 -22.25 37.597656 -20.703125 C 39.535156 -19.203125 40.484375 -17.9375 40.25 -16.953125 C 40.160156 -16.558594 39.519531 -16.5 38.335938 -16.777344 C 35.574219 -17.429688 32.730469 -20.394531 29.808594 -25.667969 C 26.890625 -30.941406 25.5 -35.644531 25.644531 -39.777344 C 25.714844 -41.84375 24.800781 -44.140625 22.898438 -46.671875 C 20.902344 -48.8125 20.371094 -51.855469 21.300781 -55.800781 C 22.234375 -59.746094 22.304688 -61.8125 21.515625 -62 C 20.726562 -62.1875 19.667969 -60.351562 18.144531 -56.546875 C 17.390625 -54.222656 16.96875 -52.449219 16.691406 -51.265625 C 15.292969 -45.34375 15.078125 -39.144531 16.046875 -32.667969 C 17.015625 -26.1875 19.007812 -20.507812 22.023438 -15.632812 C 27.242188 -7.734375 34.390625 -2.710938 43.464844 -0.566406 C 50.570312 1.109375 57.941406 0.765625 65.582031 -1.59375 C 73.027344 -4.003906 79.460938 -8.316406 84.691406 -14.582031 C 89.917969 -20.847656 93.511719 -28.121094 95.421875 -36.210938 C 97.800781 -46.277344 97.320312 -56.597656 93.9375 -66.976562 C 90.359375 -77.40625 84.191406 -86.570312 75.386719 -94.273438 C 66.429688 -102.222656 62.511719 -108.566406 63.628906 -113.300781 C 64.238281 -115.867188 66.222656 -118.105469 69.636719 -120.214844 C 73.007812 -122.128906 75.457031 -122.800781 77.035156 -122.425781 C 78.8125 -122.007812 81.339844 -120.367188 84.378906 -117.359375 C 87.269531 -114.59375 89.402344 -113.046875 90.980469 -112.675781 C 92.363281 -112.347656 93.828125 -113.253906 95.222656 -115.632812 C 96.664062 -118.207031 97.777344 -119.402344 98.566406 -119.214844 C 99.355469 -119.03125 99.984375 -119.921875 100.496094 -122.09375 C 101.058594 -124.460938 101.730469 -125.550781 102.765625 -125.515625 C 102.960938 -125.46875 103.007812 -125.667969 103.007812 -125.667969 C 103.148438 -126.257812 101.546875 -128.304688 98.207031 -131.800781 C 94.867188 -135.296875 91.929688 -137.867188 89.402344 -139.503906 C 86.824219 -140.945312 84.15625 -141.992188 81.394531 -142.644531 C 78.632812 -143.296875 75.382812 -143.648438 71.644531 -143.699219 C 68.054688 -143.503906 63.652344 -141.628906 58.195312 -137.917969 Z M 57.453125 -138.300781 "/></g></g></g><g fill="#25e781" fill-opacity="1"><g transform="translate(728.112396, 578.042102)"><g><path d="M 67.917969 -133.472656 C 62.191406 -130.191406 58.128906 -126.804688 55.484375 -123.179688 C 52.582031 -119.425781 50.640625 -116 49.589844 -112.71875 C 48.359375 -108.855469 48.160156 -104.234375 49 -98.859375 C 49.699219 -94.382812 51.160156 -90.296875 53.328125 -86.414062 C 55.492188 -82.53125 59.144531 -77.960938 64.019531 -72.574219 C 68.441406 -67.757812 71.441406 -63.820312 72.828125 -60.824219 C 76.582031 -53.242188 76.878906 -44.84375 73.984375 -35.765625 C 72.503906 -31.132812 70.5 -27.515625 67.90625 -24.726562 C 65.566406 -22.066406 62.132812 -19.96875 57.34375 -18.304688 C 52.558594 -16.640625 48.839844 -16.335938 46.136719 -17.199219 C 43.820312 -17.9375 41.285156 -20.664062 38.722656 -25.3125 C 36.164062 -29.960938 35.28125 -33.859375 35.816406 -36.878906 C 36.03125 -40.21875 35.8125 -42.203125 35.164062 -42.835938 C 35.03125 -43.089844 35.03125 -43.089844 34.839844 -43.152344 C 34.453125 -43.273438 34.332031 -42.886719 34.082031 -42.117188 C 32.914062 -38.445312 33.039062 -33.511719 34.597656 -27.054688 C 35.488281 -22.511719 37.066406 -19.457031 39.078125 -17.75 C 40.894531 -16.105469 41.746094 -14.769531 41.4375 -13.804688 C 41.3125 -13.417969 40.671875 -13.410156 39.511719 -13.78125 C 36.808594 -14.644531 34.203125 -17.816406 31.695312 -23.296875 C 29.191406 -28.78125 28.167969 -33.574219 28.625 -37.683594 C 28.855469 -39.738281 28.121094 -42.101562 26.417969 -44.773438 C 24.59375 -47.058594 24.296875 -50.132812 25.53125 -53.996094 C 26.765625 -57.859375 26.996094 -59.914062 26.222656 -60.160156 C 25.449219 -60.40625 24.253906 -58.660156 22.441406 -54.980469 C 21.507812 -52.726562 20.953125 -50.988281 20.582031 -49.828125 C 18.734375 -44.035156 18.042969 -37.871094 18.511719 -31.335938 C 18.980469 -24.800781 20.53125 -18.988281 23.160156 -13.890625 C 27.753906 -5.613281 34.496094 -0.0585938 43.378906 2.777344 C 50.335938 4.996094 57.710938 5.222656 65.511719 3.453125 C 73.117188 1.625 79.863281 -2.179688 85.5625 -8.023438 C 91.257812 -13.867188 95.398438 -20.847656 97.925781 -28.765625 C 101.070312 -38.617188 101.386719 -48.945312 98.8125 -59.554688 C 96.046875 -70.226562 90.601562 -79.839844 82.414062 -88.199219 C 74.097656 -96.8125 70.675781 -103.433594 72.15625 -108.070312 C 72.957031 -110.582031 75.113281 -112.660156 78.679688 -114.503906 C 82.183594 -116.152344 84.679688 -116.632812 86.222656 -116.136719 C 87.960938 -115.582031 90.359375 -113.753906 93.15625 -110.519531 C 95.824219 -107.542969 97.832031 -105.835938 99.378906 -105.34375 C 100.730469 -104.910156 102.257812 -105.699219 103.832031 -107.964844 C 105.46875 -110.421875 106.671875 -111.527344 107.445312 -111.28125 C 108.21875 -111.035156 108.914062 -111.878906 109.589844 -114.003906 C 110.332031 -116.320312 111.085938 -117.355469 112.113281 -117.242188 C 112.308594 -117.179688 112.367188 -117.371094 112.367188 -117.371094 C 112.554688 -117.953125 111.117188 -120.113281 108.054688 -123.855469 C 104.992188 -127.601562 102.261719 -130.386719 99.867188 -132.214844 C 97.410156 -133.851562 94.828125 -135.101562 92.125 -135.964844 C 89.421875 -136.824219 86.207031 -137.425781 82.484375 -137.761719 C 78.890625 -137.84375 74.359375 -136.3125 68.628906 -133.03125 Z M 67.917969 -133.472656 "/></g></g></g><g fill="#25e781" fill-opacity="1"><g transform="translate(800.397638, 601.243091)"><g><path d="M 73.328125 -139.628906 C 63.261719 -141.15625 58.066406 -141.222656 57.550781 -139.902344 C 57.257812 -139.144531 57.339844 -138.242188 57.800781 -137.191406 C 58.722656 -135.09375 58.890625 -133.289062 58.300781 -131.777344 C 57.710938 -130.265625 58.101562 -129.027344 59.652344 -127.984375 C 61.320312 -126.683594 61.710938 -125.445312 60.742188 -124.078125 C 59.449219 -121.320312 52.5625 -104.203125 40.007812 -72.535156 C 35.667969 -61.390625 35.667969 -61.390625 33.53125 -55.914062 C 24.699219 -33.242188 19.527344 -18.285156 18.199219 -10.96875 C 15.546875 3.664062 15.164062 11.347656 16.863281 12.007812 C 16.863281 12.007812 17.125 11.894531 17.125 11.894531 C 17.648438 11.664062 17.976562 10.265625 18.179688 7.515625 C 18.453125 4.578125 19.839844 -0.101562 22.34375 -6.527344 C 23.519531 -9.550781 24.296875 -10.988281 24.675781 -10.839844 C 24.675781 -10.839844 24.675781 -10.839844 24.867188 -10.765625 C 25.097656 -10.242188 24.789062 -6.660156 24.019531 -0.214844 C 22.988281 6.34375 23.507812 10.027344 25.398438 10.765625 C 27.023438 11.617188 28.285156 13.414062 29.058594 15.890625 C 29.675781 17.65625 30.136719 18.703125 30.515625 18.851562 C 30.894531 19 31.378906 18.316406 31.964844 16.804688 C 32.921875 14.347656 34.015625 10.425781 35.25 5.027344 C 37.195312 -4.4375 44.683594 -25.890625 57.636719 -59.140625 C 70.371094 -91.824219 77.625 -109.886719 79.664062 -113.445312 C 80.515625 -115.070312 81.335938 -116.058594 82.121094 -116.402344 C 82.910156 -116.75 84.378906 -116.613281 86.605469 -116.179688 C 89.964844 -115.304688 93.53125 -116.089844 97.429688 -118.273438 C 98.890625 -119.226562 101.734375 -120.945312 103.121094 -121.710938 C 101.988281 -122.15625 100.289062 -122.816406 98.777344 -123.40625 C 97.074219 -124.066406 96.132812 -124.4375 96.015625 -124.699219 C 95.902344 -124.960938 96.308594 -125.453125 97.320312 -126.367188 C 98.0625 -127.164062 98.621094 -128.035156 98.914062 -128.789062 C 99.0625 -129.167969 99.316406 -130.375 99.671875 -132.414062 C 99.800781 -134.972656 98.921875 -136.621094 97.03125 -137.359375 C 96.277344 -137.652344 94.050781 -138.085938 90.542969 -138.578125 C 82.628906 -139.488281 76.636719 -140.300781 72.636719 -141.203125 Z M 73.328125 -139.628906 "/></g></g></g><g fill="#25e781" fill-opacity="1"><g transform="translate(843.446727, 616.77479)"><g><path d="M 93.183594 -22.160156 C 89.550781 -14.457031 85.421875 -8.558594 80.710938 -4.28125 C 76.273438 -0.0976562 71.597656 1.730469 66.957031 1.109375 C 64.679688 0.707031 62.761719 0.0273438 61.292969 -0.664062 C 53.226562 -4.472656 49.242188 -12.183594 49.246094 -24.0625 C 49.121094 -37.574219 51.570312 -49.421875 56.417969 -59.6875 C 61.089844 -69.589844 68.148438 -78.367188 77.5 -85.832031 C 83.742188 -90.511719 88.667969 -93.34375 92.359375 -94.515625 C 93.707031 -95 96.503906 -95.699219 97.765625 -96 C 98.445312 -94.109375 99.421875 -90.957031 100.207031 -88.34375 C 101.488281 -83.929688 102.34375 -78.144531 102.679688 -71.257812 C 103.351562 -53.679688 100.183594 -37.464844 93.085938 -22.429688 Z M 119.121094 -66.191406 C 119.035156 -57.9375 118.339844 -52.660156 117.300781 -50.460938 C 117.042969 -49.910156 116.871094 -49.542969 116.6875 -49.628906 C 115.953125 -49.976562 115.578125 -54.410156 115.566406 -62.9375 C 115.46875 -71.277344 114.753906 -78.789062 113.152344 -85.375 C 111.757812 -90.964844 111.230469 -94.128906 111.664062 -95.042969 C 112.011719 -95.777344 112.917969 -95.796875 114.382812 -95.105469 C 115.851562 -94.414062 117.003906 -91.628906 117.839844 -86.75 C 118.867188 -81.332031 119.292969 -74.628906 119.207031 -66.375 Z M 102.796875 -118.058594 C 96.722656 -118.011719 91.109375 -117.523438 86.058594 -116.320312 C 80.101562 -115.097656 73.113281 -111.21875 65.101562 -104.6875 C 57.886719 -98.902344 52.289062 -93.695312 48.398438 -89.253906 C 44.511719 -84.8125 41.007812 -79.292969 37.894531 -72.691406 C 36.421875 -69.574219 35.296875 -67.191406 34.519531 -65.539062 C 26.511719 -46.675781 24.269531 -29.574219 27.523438 -14.136719 C 30.773438 1.296875 38.910156 12.085938 51.929688 18.230469 C 52.113281 18.316406 52.113281 18.316406 52.296875 18.402344 C 62.195312 23.074219 71.734375 23.765625 80.824219 20.65625 C 89.644531 17.644531 97.570312 11.296875 104.695312 1.433594 C 109.265625 -4.929688 112.585938 -10.539062 114.921875 -15.488281 C 117.679688 -21.808594 119.707031 -28.476562 120.902344 -35.757812 C 122.097656 -43.039062 122.859375 -49.40625 123.089844 -55.125 C 123.5 -65.019531 122.714844 -75.703125 120.730469 -87.179688 C 120.128906 -89.703125 119.914062 -91.148438 120.089844 -91.515625 C 120.347656 -92.066406 121.15625 -92.355469 122.605469 -92.570312 C 124.773438 -92.894531 126.132812 -92.921875 126.683594 -92.664062 C 127.234375 -92.40625 127.675781 -92.867188 128.195312 -93.96875 C 128.972656 -95.617188 129.246094 -99.523438 128.929688 -105.503906 C 129.082031 -106.777344 129.59375 -108.328125 130.457031 -110.164062 C 130.71875 -110.714844 129.886719 -111.328125 127.871094 -112.28125 C 125.304688 -113.492188 122.011719 -114.597656 118 -115.59375 C 114.171875 -116.503906 109.261719 -117.027344 103.183594 -116.980469 Z M 102.796875 -118.058594 "/></g></g></g><g fill="#25e781" fill-opacity="1"><g transform="translate(923.969943, 654.657903)"><g><path d="M 126.796875 -93.785156 C 125.636719 -92.582031 124.65625 -92.914062 123.582031 -94.703125 C 123.257812 -95.355469 122.832031 -95.835938 122.480469 -96.039062 C 121.777344 -96.445312 120.414062 -94.890625 118.289062 -91.199219 C 117.984375 -90.671875 117.277344 -89.441406 116.261719 -87.6875 C 115.25 -85.929688 114.339844 -84.347656 113.53125 -82.941406 C 107.835938 -72.652344 103.789062 -65.625 101.460938 -61.585938 C 90.328125 -42.257812 84.234375 -32.902344 83.355469 -33.40625 C 82.828125 -33.710938 82.964844 -35.972656 83.757812 -40.195312 C 84.34375 -42.429688 85.359375 -51.910156 86.800781 -68.625 C 87.488281 -78.757812 88.242188 -85.34375 88.980469 -88.660156 C 89.722656 -91.980469 91.191406 -95.34375 93.21875 -98.855469 C 95.847656 -103.425781 97.496094 -106.6875 98.054688 -108.472656 C 98.410156 -109.902344 97.585938 -111.316406 95.652344 -112.429688 C 94.421875 -113.136719 93.34375 -113.292969 92.585938 -112.792969 C 91.730469 -112.117188 90.574219 -112.546875 89.019531 -113.910156 C 88.492188 -114.214844 88.492188 -114.214844 88.316406 -114.316406 C 86.558594 -115.328125 84.121094 -115.5625 81 -115.019531 C 77.882812 -114.476562 75.917969 -113.503906 75.105469 -112.097656 C 74.398438 -110.867188 73.464844 -110.46875 72.238281 -111.175781 C 71.183594 -111.785156 70.554688 -111.914062 70.25 -111.386719 C 69.84375 -110.683594 69.410156 -107.894531 69.113281 -102.914062 C 68.847656 -98.390625 67.902344 -94.722656 66.285156 -91.910156 C 64.96875 -89.625 62.972656 -86.566406 60.292969 -82.726562 C 53.644531 -73.21875 45.832031 -60.875 37.027344 -45.589844 C 30.648438 -34.519531 26.144531 -25.886719 23.507812 -19.683594 C 19.832031 -11.273438 18.484375 -6.902344 19.183594 -6.496094 C 19.359375 -6.394531 20.449219 -7.875 22.269531 -11.039062 C 26.316406 -18.066406 29.042969 -21.171875 30.449219 -20.363281 C 30.449219 -20.363281 30.625 -20.261719 30.699219 -19.984375 C 31.199219 -19.230469 30.640625 -17.445312 29.023438 -14.636719 C 27.402344 -11.824219 26.335938 -9.164062 25.824219 -6.648438 C 25.488281 -4.035156 25.761719 -2.476562 26.8125 -1.867188 C 27.867188 -1.261719 28.242188 0.125 27.753906 2.183594 C 27.296875 3.792969 27.242188 4.699219 27.59375 4.898438 C 28.824219 5.609375 33.070312 -0.136719 40.328125 -12.332031 C 45.566406 -21.015625 50.675781 -29.070312 55.378906 -36.421875 C 56.96875 -38.78125 59.953125 -43.144531 61.445312 -45.328125 C 61.335938 -43.519531 60.972656 -40.449219 60.738281 -38.011719 C 60.167969 -32.960938 60.285156 -30.320312 60.988281 -29.914062 C 61.867188 -29.40625 61.753906 -25.964844 60.371094 -19.503906 C 58.992188 -13.046875 58.703125 -9.703125 59.40625 -9.296875 C 59.40625 -9.296875 59.507812 -9.472656 59.8125 -10 C 60.316406 -10.878906 60.851562 -12.210938 61.511719 -14.167969 C 62.527344 -17.5625 63.492188 -20.046875 64.304688 -21.453125 C 65.214844 -23.035156 65.792969 -23.636719 66.320312 -23.332031 C 67.199219 -22.824219 67.140625 -20.285156 66.320312 -15.609375 C 65.5 -10.9375 65.613281 -8.296875 66.492188 -7.789062 C 67.546875 -7.183594 67.820312 -5.621094 67.382812 -2.832031 C 66.945312 -0.0429688 65.953125 2.894531 64.230469 5.882812 C 62.410156 9.046875 60.636719 12.9375 58.910156 17.558594 C 58.453125 19.164062 57.359375 22.28125 56.726562 23.785156 C 57.433594 22.558594 58.648438 20.449219 59.558594 18.867188 C 61.785156 15.003906 64.058594 11.867188 66.207031 9.359375 C 68.351562 6.851562 69.691406 5.75 70.21875 6.054688 C 70.917969 6.460938 70.664062 7.714844 69.449219 9.824219 C 64.488281 18.433594 62.988281 23.882812 65.21875 26.105469 C 66.523438 27.089844 66.617188 28.550781 65.402344 30.65625 C 64.1875 32.765625 64.210938 33.949219 65.4375 34.65625 C 66.667969 35.363281 68.484375 33.835938 70.8125 29.796875 C 72.027344 27.6875 75.46875 21.714844 81.136719 11.875 C 90.851562 -4.988281 102.820312 -26.171875 116.941406 -51.496094 C 131.0625 -76.820312 138.476562 -90.097656 139.011719 -91.429688 C 139.625 -94.117188 139.351562 -95.679688 138.121094 -96.386719 C 137.066406 -96.992188 135.285156 -97.554688 132.773438 -98.066406 C 129.179688 -98.730469 126.886719 -98.414062 125.902344 -97.109375 Z M 126.796875 -93.785156 "/></g></g></g><g fill="#ffffff" fill-opacity="1"><g transform="translate(336.337856, 781.144762)"><g><path d="M -23.746094 -184.472656 C -29.414062 -182.644531 -32.953125 -180.773438 -34.617188 -178.808594 C -35.894531 -177.457031 -36.476562 -176.53125 -36.359375 -176.027344 C -36.300781 -175.777344 -35.320312 -174.941406 -33.351562 -173.277344 C -30.765625 -171.226562 -29.605469 -169.640625 -29.878906 -168.519531 C -30.128906 -168.460938 -30.074219 -168.210938 -29.957031 -167.707031 C -29.84375 -167.203125 -28.800781 -166.121094 -26.636719 -164.765625 C -24.476562 -163.410156 -23.433594 -162.324219 -23.261719 -161.570312 C -23.203125 -161.320312 -23.398438 -161.011719 -23.339844 -160.757812 C -23.363281 -159.695312 -21.488281 -159.597656 -17.464844 -160.519531 C -15.957031 -160.863281 -12.691406 -161.613281 -11.183594 -161.957031 C -10.511719 -157.878906 -9.460938 -150.976562 -8.445312 -145.390625 C -8.101562 -143.882812 -7.144531 -138.550781 -5.515625 -129.136719 C -3.886719 -119.722656 -2.894531 -113.074219 -2.222656 -108.992188 C -1.054688 -101.589844 0.59375 -93.238281 2.664062 -84.191406 C 7.675781 -62.328125 11.558594 -49.992188 14.375 -46.9375 C 16.574219 -44.265625 19.828125 -38.132812 24.144531 -28.542969 C 29.304688 -17.558594 32.386719 -12.179688 33.140625 -12.355469 C 33.644531 -12.46875 33.492188 -14.285156 32.6875 -17.804688 C 32.054688 -20.570312 31.535156 -22.832031 31.132812 -24.589844 C 30.441406 -27.605469 30.441406 -27.605469 30.152344 -28.863281 C 29.175781 -33.132812 28.964844 -35.203125 29.46875 -35.316406 C 30.222656 -35.488281 32.398438 -31.757812 36.253906 -24.175781 C 38.46875 -19.128906 40.664062 -16.457031 42.792969 -16.414062 C 44.972656 -16.121094 47.078125 -15.019531 49.046875 -13.351562 C 51.015625 -11.6875 52.25 -10.914062 53.003906 -11.085938 C 54.011719 -11.316406 54.109375 -13.191406 53.304688 -16.707031 C 51.921875 -22.738281 48.652344 -31.246094 43.546875 -41.980469 C 39.828125 -50.121094 35.101562 -67.289062 29.058594 -93.679688 C 26.179688 -106.242188 24.761719 -113.589844 25.054688 -115.773438 C 25.210938 -117.394531 27.300781 -118.667969 31.574219 -119.644531 C 32.578125 -119.875 36.097656 -120.683594 42.183594 -121.8125 C 47.773438 -122.828125 51.039062 -123.578125 52.042969 -123.808594 C 56.566406 -124.84375 58.964844 -125.921875 59.238281 -127.042969 C 59.957031 -128.527344 62.101562 -129.550781 65.871094 -130.414062 C 67.320312 -131.011719 70.085938 -131.644531 71.34375 -131.929688 C 69.972656 -132.144531 67.730469 -132.691406 65.742188 -133.292969 C 62.378906 -134.109375 60.640625 -134.769531 60.527344 -135.273438 C 60.355469 -136.027344 61.4375 -137.066406 63.972656 -138.707031 C 65.363281 -139.554688 66.585938 -141.15625 67.378906 -143.457031 C 68.175781 -145.753906 68.21875 -147.878906 67.816406 -149.636719 C 67.640625 -150.390625 67.21875 -151.089844 66.601562 -151.476562 C 63.570312 -153.164062 52.726562 -152 34.070312 -147.992188 C 30.300781 -147.128906 22.761719 -145.398438 18.992188 -144.535156 C 18.359375 -147.300781 17.265625 -152.074219 16.402344 -155.847656 C 14.847656 -162.632812 14.679688 -166.824219 16.152344 -168.484375 C 17.625 -170.144531 23.8125 -173.148438 34.71875 -177.5 C 44.171875 -181.253906 49.800781 -184.394531 51.351562 -186.863281 C 53.09375 -189.644531 54.875 -191.109375 56.632812 -191.511719 C 57.890625 -191.800781 60.230469 -193.128906 63.40625 -195.445312 C 65.183594 -196.910156 66.074219 -197.644531 66.015625 -197.894531 C 65.960938 -198.144531 63.640625 -197.878906 58.75 -197.289062 C 56.429688 -197.019531 51.792969 -196.488281 49.472656 -196.21875 C 50.867188 -197.066406 53.148438 -198.648438 54.984375 -199.863281 C 56.824219 -201.078125 58.625 -203.605469 60.390625 -207.449219 C 62.152344 -211.292969 62.890625 -213.84375 62.546875 -215.351562 C 62.488281 -215.601562 62.433594 -215.851562 62.125 -216.046875 C 61.195312 -216.628906 59.378906 -216.476562 56.363281 -215.785156 C 50.835938 -214.519531 44.222656 -212.210938 36.273438 -208.800781 C 20.628906 -202.042969 -0.621094 -193.207031 -27.230469 -182.351562 Z M -23.746094 -184.472656 "/></g></g></g><g fill="#ffffff" fill-opacity="1"><g transform="translate(439.813357, 756.833787)"><g><path d="M 38.71875 -167.316406 C 34.039062 -160.761719 31.441406 -157.464844 30.667969 -157.40625 C 29.898438 -157.351562 29.449219 -159.902344 29.066406 -165.042969 C 29.007812 -165.816406 28.890625 -167.359375 28.855469 -167.871094 C 28.644531 -170.699219 28.515625 -175.863281 28.324219 -178.433594 C 30.34375 -179.101562 33.628906 -180.121094 36.417969 -180.847656 C 42.21875 -182.828125 45.757812 -183.867188 47.300781 -183.984375 C 48.074219 -184.042969 48.605469 -183.824219 48.644531 -183.308594 C 48.644531 -183.308594 48.425781 -182.773438 48.226562 -181.984375 C 46.417969 -178.488281 43.183594 -173.335938 38.5 -166.78125 Z M -9.894531 -188.253906 C -10.371094 -187.699219 -10.828125 -186.890625 -10.769531 -186.117188 C -10.691406 -185.089844 -9.566406 -183.882812 -7.394531 -182.492188 C -4.949219 -180.863281 -3.492188 -178.648438 -3.042969 -176.09375 C -2.59375 -173.542969 -1.960938 -165.058594 -0.886719 -150.660156 C 0.339844 -134.207031 2.199219 -109.265625 4.433594 -75.824219 C 4.871094 -69.910156 5.429688 -62.453125 6.117188 -53.199219 C 7.402344 -35.972656 10.675781 -16.308594 15.964844 6.050781 C 17.023438 9.847656 17.023438 9.847656 17.433594 11.886719 C 17.433594 11.886719 17.144531 8.03125 16.570312 0.316406 C 15.886719 -12.300781 16.457031 -18.546875 18 -18.664062 C 18.511719 -18.703125 19.066406 -18.226562 19.675781 -16.980469 C 20.363281 -14.703125 20.851562 -11.636719 21.117188 -8.039062 C 21.980469 3.53125 24.257812 9.824219 27.933594 10.585938 C 30.03125 10.945312 31.726562 12.890625 32.746094 16.175781 C 33.53125 19.734375 34.414062 21.21875 35.703125 21.125 C 36.988281 21.027344 36.121094 2.480469 33.363281 -34.546875 C 30.527344 -72.597656 29.363281 -91.640625 30.136719 -91.699219 C 31.421875 -91.796875 36.445312 -83.378906 45.222656 -66.195312 C 54.828125 -48.296875 60.738281 -38.394531 63.207031 -36.511719 C 66.246094 -33.894531 69.894531 -30.027344 73.894531 -24.898438 C 77.878906 -20.023438 80.125 -17.605469 80.898438 -17.664062 C 81.15625 -17.683594 81.136719 -17.941406 81.117188 -18.195312 C 81.058594 -18.96875 80.152344 -20.710938 78.382812 -23.679688 C 76.019531 -27.640625 74.777344 -30.394531 74.664062 -31.933594 C 74.625 -32.449219 74.863281 -32.726562 75.378906 -32.765625 C 76.40625 -32.839844 78.300781 -31.691406 81.101562 -28.796875 C 85.007812 -24.949219 87.734375 -23.085938 89.277344 -23.199219 C 89.53125 -23.21875 89.769531 -23.496094 89.769531 -23.496094 C 90.027344 -23.515625 90.285156 -23.535156 90.285156 -23.535156 C 90.78125 -23.828125 91.550781 -23.886719 92.066406 -23.925781 C 92.835938 -23.984375 93.882812 -23.800781 94.988281 -22.851562 C 96.074219 -22.15625 97.121094 -21.976562 98.152344 -22.050781 C 98.921875 -22.109375 99.398438 -22.660156 99.304688 -23.949219 C 99.074219 -27.03125 95.707031 -34.019531 89.226562 -44.65625 C 86.902344 -48.101562 80.363281 -59.507812 69.59375 -79.128906 C 60.617188 -95.523438 53.507812 -107.660156 48.523438 -115.5625 C 46.457031 -119.027344 42.042969 -126.195312 39.976562 -129.664062 C 42.574219 -132.957031 47.054688 -138.722656 50.585938 -143.378906 C 59.113281 -153.839844 64.75 -161.5 67.488281 -166.355469 C 70.230469 -171.214844 71.902344 -176.511719 72.511719 -182.242188 C 72.792969 -185.367188 72.800781 -188.726562 72.535156 -192.328125 C 71.347656 -208.269531 61.753906 -215.566406 43.753906 -214.226562 C 35.785156 -213.632812 26.902344 -211.417969 16.847656 -207.566406 C -1.242188 -200.53125 -11.953125 -195.078125 -14.988281 -190.714844 Z M -9.894531 -188.253906 "/></g></g></g><g fill="#ffffff" fill-opacity="1"><g transform="translate(539.296221, 749.125258)"><g><path d="M 33.734375 9.882812 C 33.914062 7.050781 34.074219 4.480469 33.949219 2.40625 C 33.902344 -0.957031 33.828125 -7.9375 33.78125 -11.296875 C 37.367188 -10.8125 43.269531 -10.179688 48.140625 -9.613281 C 48.914062 -9.566406 50.972656 -9.4375 54.316406 -9.226562 C 57.660156 -9.011719 59.464844 -8.898438 59.71875 -8.882812 C 64.867188 -8.558594 69.578125 -9.550781 73.859375 -11.863281 C 78.941406 -14.644531 81.4375 -17.328125 81.601562 -19.898438 C 81.683594 -21.1875 80.683594 -21.765625 78.625 -21.894531 C 77.082031 -21.992188 75.363281 -23.394531 73.46875 -26.097656 C 71.570312 -28.800781 69.851562 -30.199219 68.308594 -30.296875 C 65.992188 -30.445312 65.269531 -31.265625 65.898438 -33.035156 C 66.476562 -34.03125 66.507812 -34.546875 66.011719 -34.835938 C 65.511719 -35.125 64.226562 -35.207031 62.152344 -35.078125 C 61.894531 -35.097656 61.636719 -35.113281 61.378906 -35.128906 C 61.378906 -35.128906 60.863281 -35.160156 60.609375 -35.175781 C 58.804688 -35.292969 55.445312 -35.246094 50.765625 -34.765625 C 46.085938 -34.285156 41.96875 -34.546875 38.398438 -35.289062 C 38.140625 -35.304688 37.53125 -37.925781 36.8125 -42.882812 C 36.089844 -47.835938 36.46875 -57.886719 37.667969 -72.792969 C 38.023438 -74.320312 38.71875 -77.121094 39.054688 -78.390625 C 43.703125 -78.355469 51.457031 -78.382812 57.648438 -78.25 C 70.03125 -77.980469 77.285156 -78.296875 79.390625 -78.941406 C 81.480469 -79.324219 82.578125 -80.289062 82.675781 -81.832031 C 82.773438 -83.375 82.097656 -84.96875 80.394531 -86.625 C 78.433594 -88.300781 78.015625 -89.878906 78.628906 -91.386719 C 78.628906 -91.386719 78.644531 -91.644531 78.660156 -91.902344 C 78.660156 -91.902344 78.917969 -91.886719 78.933594 -92.144531 C 79 -93.171875 78.050781 -94.523438 76.089844 -96.199219 C 74.128906 -97.871094 73.183594 -99.222656 73.246094 -100.253906 C 73.246094 -100.253906 73.261719 -100.511719 73.535156 -100.753906 C 73.535156 -100.753906 73.535156 -100.753906 73.554688 -101.007812 C 73.859375 -101.765625 73.632812 -102.296875 72.878906 -102.601562 C 72.121094 -102.910156 70.320312 -103.023438 67.75 -103.183594 C 65.175781 -103.347656 60.046875 -103.929688 52.117188 -105.207031 C 50.074219 -105.59375 45.734375 -106.386719 43.691406 -106.773438 C 44 -111.660156 44.523438 -119.894531 44.945312 -126.585938 C 45.804688 -140.222656 47.019531 -147.121094 48.59375 -147.539062 C 48.851562 -147.523438 49.109375 -147.503906 49.625 -147.472656 C 53.484375 -147.230469 58.835938 -146.113281 65.671875 -143.875 C 72.777344 -141.875 77.359375 -140.8125 79.417969 -140.679688 C 80.449219 -140.617188 81.238281 -140.824219 81.511719 -141.066406 C 82.058594 -141.546875 83.617188 -141.707031 86.191406 -141.542969 C 87.21875 -141.480469 88.761719 -141.382812 91.0625 -140.976562 C 93.621094 -140.558594 95.164062 -140.460938 95.679688 -140.429688 C 97.480469 -140.3125 98.269531 -140.523438 98.300781 -141.035156 C 98.332031 -141.550781 96.597656 -142.695312 93.074219 -144.210938 C 89.539062 -145.464844 87.820312 -146.867188 87.898438 -148.152344 C 87.964844 -149.183594 89.796875 -149.582031 93.402344 -149.355469 C 97.003906 -149.128906 98.851562 -149.785156 98.96875 -151.585938 C 99.082031 -153.386719 99.933594 -154.625 101.769531 -155.027344 C 103.859375 -155.410156 104.679688 -156.132812 104.746094 -157.164062 C 104.90625 -159.734375 97.382812 -163.3125 82.171875 -167.890625 C 56.589844 -175.964844 42.925781 -180.445312 41.445312 -181.574219 C 40.480469 -182.667969 36.15625 -183.714844 28.484375 -184.976562 C 25.414062 -185.429688 19.785156 -186.300781 16.972656 -186.738281 C 17.019531 -183.375 17.175781 -177.683594 17.140625 -173.035156 C 17.292969 -163.207031 17.011719 -154.699219 16.558594 -147.496094 C 15.875 -136.6875 13.929688 -118.210938 10.214844 -92.097656 C 10.035156 -89.265625 9.855469 -86.4375 9.660156 -83.347656 C 8.246094 -60.960938 7.890625 -34.894531 8.609375 -5.398438 C 10.046875 8.644531 11.148438 15.6875 12.179688 15.753906 C 12.695312 15.785156 13.03125 14.515625 13.195312 11.941406 C 13.242188 11.171875 13.421875 8.339844 13.457031 3.691406 C 13.589844 1.632812 13.75 -0.9375 13.945312 -4.027344 C 14.304688 -9.6875 14.996094 -12.484375 16.027344 -12.421875 C 17.054688 -12.355469 17.875 -8.945312 18.464844 -1.933594 C 19.566406 9.246094 22.054688 14.828125 26.171875 15.089844 C 27.199219 15.152344 28.164062 16.246094 29.304688 18.644531 C 30.445312 21.042969 31.410156 22.136719 32.179688 22.183594 C 32.953125 22.234375 33.324219 20.449219 33.585938 16.332031 Z M 33.734375 9.882812 "/></g></g></g><g fill="#ffffff" fill-opacity="1"><g transform="translate(626.751712, 753.827052)"><g><path d="M 78.191406 -64.421875 C 78.042969 -63.664062 77.484375 -63.511719 76.472656 -63.710938 C 74.957031 -64.011719 72.730469 -64.714844 70.046875 -65.773438 C 65.597656 -67.179688 63.519531 -68.640625 63.820312 -70.160156 C 64.019531 -71.171875 64.121094 -71.675781 64.472656 -72.132812 C 66.585938 -78.808594 66.585938 -78.808594 67.488281 -82.046875 C 69.902344 -88.929688 72.265625 -95.558594 74.578125 -101.933594 C 76.890625 -108.308594 78.300781 -111.445312 78.804688 -111.347656 C 79.5625 -111.195312 79.832031 -103.257812 79.613281 -87.535156 C 79.582031 -76.761719 79.144531 -69.230469 78.292969 -64.929688 Z M 77.8125 -176.722656 C 75.789062 -177.125 74.425781 -176.867188 73.71875 -175.957031 C 73.015625 -175.042969 71.394531 -174.839844 68.867188 -175.339844 C 67.347656 -175.640625 66.441406 -175.03125 65.835938 -173.3125 C 65.234375 -171.589844 64.234375 -166.53125 62.582031 -158.1875 C 57.921875 -135.980469 45.40625 -99.296875 24.78125 -48.1875 C 20.855469 -38.976562 18.695312 -32.042969 18.097656 -27.695312 C 17.09375 -22.636719 14.480469 -16.058594 10.199219 -7.707031 C 6.824219 -1.277344 5.164062 3.125 4.761719 5.148438 C 4.714844 5.402344 4.664062 5.652344 4.867188 5.957031 C 4.867188 5.957031 5.117188 6.007812 5.371094 6.058594 C 5.675781 5.855469 5.976562 5.652344 6.332031 5.195312 C 6.683594 4.738281 6.988281 4.535156 7.339844 4.082031 C 10.160156 -0.878906 13.1875 -5.539062 16.363281 -9.640625 C 19.238281 -13.539062 21.15625 -15.261719 21.914062 -15.113281 C 22.167969 -15.0625 22.117188 -14.808594 22.117188 -14.808594 C 22.320312 -14.507812 22.320312 -14.507812 22.320312 -14.507812 C 22.21875 -14 22.167969 -13.746094 22.167969 -13.746094 C 21.617188 -10.964844 20.007812 -6.816406 17.339844 -1.300781 C 14.976562 4.015625 13.515625 7.40625 13.214844 8.921875 C 12.964844 10.1875 13.21875 11.550781 13.730469 12.96875 C 14.488281 14.433594 14.796875 15.542969 14.59375 16.554688 C 14.496094 17.0625 13.992188 18.277344 12.832031 20.148438 C 10.96875 22.933594 10.113281 24.605469 9.960938 25.363281 C 9.863281 25.867188 10.0625 26.171875 10.570312 26.269531 C 10.824219 26.320312 11.683594 25.964844 13.449219 25 C 16.984375 23.074219 21.675781 17.957031 27.527344 9.652344 C 33.375 1.347656 38.210938 -7.15625 42.035156 -15.859375 C 48.582031 -30.335938 52.609375 -38.734375 54.121094 -41.066406 C 55.632812 -43.394531 57.402344 -44.359375 59.675781 -43.90625 C 60.6875 -43.707031 60.6875 -43.707031 61.195312 -43.609375 C 64.988281 -42.855469 68.933594 -41.550781 72.882812 -40.242188 C 75.105469 -39.539062 76.425781 -38.226562 76.882812 -36.558594 C 77.394531 -33.832031 75.957031 -19.921875 72.566406 5.164062 C 71.070312 15.378906 70.578125 20.539062 71.335938 20.6875 C 71.839844 20.789062 73.855469 15.929688 77.375 6.113281 C 79.082031 0.144531 80.441406 -2.742188 81.453125 -2.539062 C 82.464844 -2.339844 82.117188 2.058594 80.367188 10.910156 C 78.414062 20.773438 78.121094 26.234375 79.691406 27.597656 C 81.261719 28.960938 81.773438 31.691406 81.226562 35.785156 C 80.875 37.558594 80.476562 40.894531 80.175781 42.414062 C 80.984375 40.996094 82.75 38.714844 84.160156 36.894531 C 90.414062 29.195312 95.390625 14.671875 99.644531 -6.824219 C 107.105469 -44.507812 109.25 -83.246094 105.832031 -123.082031 C 104.382812 -140.976562 102.785156 -154.171875 100.796875 -162.710938 C 98.808594 -171.253906 95.8125 -177.367188 92.0625 -181 C 90.746094 -182.3125 89.835938 -183.015625 89.328125 -183.117188 C 88.824219 -183.21875 87.410156 -182.707031 85.289062 -181.289062 C 82.765625 -179.160156 80.492188 -178.296875 78.214844 -178.746094 Z M 77.8125 -176.722656 "/></g></g></g><g fill="#ffffff" fill-opacity="1"><g transform="translate(717.032297, 770.880888)"><g><path d="M 84.742188 -189.496094 C 81.816406 -190.503906 79.945312 -190.605469 79.121094 -189.800781 C 78.296875 -188.992188 76.910156 -188.925781 74.960938 -189.597656 C 73.984375 -189.933594 73.085938 -189.699219 72.421875 -188.566406 C 71.757812 -187.429688 70.914062 -184.992188 69.570312 -181.09375 C 69.148438 -179.875 68.308594 -177.4375 67.890625 -176.21875 C 67.382812 -174.757812 66.542969 -172.320312 65.953125 -170.613281 C 61.160156 -156.722656 54.273438 -137.550781 45.050781 -113.1875 C 39.519531 -98.730469 33.96875 -82.648438 28 -65.34375 C 13.871094 -24.398438 7.539062 -3.671875 9.003906 -3.167969 C 9.246094 -3.082031 11.40625 -6.972656 15.484375 -14.839844 C 20.394531 -24.328125 23.292969 -28.78125 24.027344 -28.53125 C 25 -28.195312 24.140625 -24.125 21.367188 -16.082031 C 19.097656 -9.503906 17.667969 -5.359375 17.324219 -3.570312 C 16.976562 -1.777344 17.617188 -0.46875 18.910156 0.523438 C 20.9375 1.769531 21.238281 4.054688 20.144531 7.222656 C 18.96875 10.636719 18.621094 12.425781 19.355469 12.675781 C 20.574219 13.097656 23.050781 9.863281 26.792969 2.972656 C 30.871094 -4.894531 36.96875 -18.609375 44.753906 -38.015625 C 56.046875 -65.210938 62.300781 -78.597656 63.273438 -78.261719 C 63.761719 -78.09375 63.921875 -77.765625 63.996094 -77.195312 C 64.46875 -75.398438 64.644531 -68.789062 64.523438 -57.375 C 64.6875 -26.230469 65.960938 -7.789062 68.1875 -2.382812 C 70.019531 1.792969 71.515625 6.945312 72.589844 13.316406 C 73.832031 19.199219 74.699219 22.226562 75.429688 22.476562 C 75.671875 22.5625 75.757812 22.320312 75.925781 21.832031 C 76.261719 20.855469 76.203125 18.652344 75.917969 14.738281 C 75.648438 9.191406 75.769531 5.6875 76.355469 3.980469 C 76.691406 3.003906 77.105469 2.601562 77.59375 2.769531 C 78.566406 3.105469 79.675781 6.214844 80.917969 12.097656 C 81.84375 17.328125 83.277344 20.277344 85.230469 20.949219 C 85.230469 20.949219 85.472656 21.035156 85.472656 21.035156 C 87.507812 21.464844 89.289062 22.625 90.816406 24.515625 C 91.457031 25.824219 92.019531 26.566406 92.507812 26.734375 C 93.238281 26.984375 93.648438 26.582031 94.070312 25.363281 C 94.910156 22.925781 95.039062 18.605469 94.449219 12.402344 C 94.25 8.242188 93.292969 -9.539062 91.828125 -40.867188 C 90.363281 -72.191406 89.433594 -92.421875 88.957031 -101.3125 C 88.820312 -104.085938 88.796875 -109.550781 88.90625 -112.238281 C 90.554688 -113.851562 93.355469 -116.433594 95.742188 -118.609375 C 99.945312 -122.886719 107.988281 -128.019531 119.875 -134.011719 C 130.035156 -138.960938 135.289062 -142.328125 135.878906 -144.035156 C 136.046875 -144.523438 136.214844 -145.007812 135.8125 -145.421875 C 135.425781 -147.464844 134.214844 -148.699219 132.507812 -149.289062 C 131.046875 -149.792969 130.566406 -150.777344 131.15625 -152.480469 C 131.746094 -154.1875 130.535156 -155.425781 127.609375 -156.433594 C 124.683594 -157.441406 123.476562 -158.679688 123.980469 -160.140625 C 124.566406 -161.847656 124.332031 -162.746094 123.359375 -163.082031 C 122.625 -163.335938 115.910156 -160.46875 102.964844 -154.570312 C 90.761719 -149.234375 84.214844 -146.859375 83.238281 -147.195312 C 82.753906 -147.363281 84.695312 -153.785156 89.066406 -166.457031 C 93.101562 -178.15625 94.640625 -184.988281 93.929688 -186.871094 C 93.128906 -188.511719 92.324219 -189.335938 91.347656 -189.671875 C 90.617188 -189.921875 89.71875 -189.6875 88.894531 -188.882812 C 87.988281 -187.832031 86.113281 -187.933594 83.1875 -188.941406 Z M 84.742188 -189.496094 "/></g></g></g><g fill="#ffffff" fill-opacity="1"><g transform="translate(808.588393, 803.751242)"><g><path d="M 35.753906 -35.003906 C 34.558594 -36.113281 33.0625 -35.941406 30.824219 -34.128906 C 28.816406 -32.210938 27.089844 -32.144531 25.660156 -33.363281 C 25.191406 -33.578125 25.191406 -33.578125 25.191406 -33.578125 C 24.015625 -34.109375 21.410156 -29.628906 17.140625 -20.242188 C 12.550781 -10.152344 10.777344 -5.011719 11.714844 -4.582031 C 12.65625 -4.15625 12.695312 -3.003906 11.84375 -1.125 C 11.523438 -0.421875 12.460938 0.00390625 14.765625 -0.0820312 C 16.707031 -0.613281 17.859375 -0.65625 18.328125 -0.441406 C 18.796875 -0.226562 19.289062 0.5625 19.695312 2.160156 C 20.355469 4.445312 22.378906 6.21875 25.902344 7.820312 C 28.71875 9.101562 30.914062 9.25 32.492188 8.269531 C 33.730469 7.414062 35.355469 4.472656 37.703125 -0.691406 C 40.90625 -7.730469 43.746094 -15.21875 46.097656 -23.496094 C 48.445312 -31.777344 48.980469 -36.066406 47.574219 -36.707031 C 46.636719 -37.132812 44.800781 -36.835938 41.960938 -35.578125 C 39.359375 -34.210938 37.394531 -34.253906 35.625 -35.34375 Z M 61.195312 -61.664062 C 62.796875 -65.183594 71.167969 -82.335938 86.542969 -113.015625 C 100.101562 -139.703125 108.148438 -156.152344 111.140625 -162.722656 C 112.207031 -165.070312 112.207031 -165.070312 112.742188 -166.242188 C 113.253906 -167.992188 112.742188 -169.359375 111.335938 -170 C 110.160156 -170.53125 108.773438 -170.597656 106.9375 -170.300781 C 105.105469 -170 103.355469 -170.515625 101.925781 -171.730469 C 101.796875 -172.070312 101.5625 -172.179688 101.09375 -172.390625 C 100.625 -172.605469 99.578125 -172.796875 97.613281 -172.839844 C 95.652344 -172.886719 94.371094 -173.183594 93.433594 -173.613281 C 92.964844 -173.824219 92.601562 -174.273438 92.367188 -174.378906 C 92.132812 -174.488281 92.132812 -174.488281 92.132812 -174.488281 C 90.488281 -175.234375 85.878906 -168.835938 78.296875 -155.289062 C 70.71875 -141.742188 63.417969 -126.9375 56.15625 -110.976562 C 49.855469 -97.132812 45.308594 -85.890625 42.746094 -77.140625 C 40.5 -69.097656 39.730469 -64.914062 40.199219 -64.703125 C 40.671875 -64.488281 41.3125 -65.898438 42.699219 -68.949219 C 44.300781 -72.46875 45.945312 -74.835938 47.972656 -76.179688 C 48.867188 -76.90625 49.316406 -77.265625 49.550781 -77.160156 C 50.019531 -76.945312 49.679688 -73.703125 48.289062 -67.539062 C 47.605469 -64.167969 48.03125 -61.988281 49.671875 -61.242188 C 50.847656 -60.707031 51.464844 -59.578125 51.65625 -57.507812 C 51.847656 -55.4375 52.464844 -54.308594 53.40625 -53.878906 C 54.8125 -53.238281 57.011719 -56.203125 60 -62.773438 Z M 61.195312 -61.664062 "/></g></g></g></svg>