<svg xmlns="http://www.w3.org/2000/svg" xmlns:xlink="http://www.w3.org/1999/xlink" width="1600" zoomAndPan="magnify" viewBox="0 0 1200 1199.999942" height="1600" preserveAspectRatio="xMidYMid meet" version="1.0"><defs><g/></defs><path stroke-linecap="butt" transform="matrix(0.728255, 0, 0, 0.728255, -11.829167, 410.083839)" fill="none" stroke-linejoin="miter" d="M 551.764616 -6.99158 C 567.416331 -6.99158 578.85206 -2.88287 586.071803 5.334548 C 593.286181 13.509056 596.896052 26.575395 596.896052 44.533566 C 596.896052 57.358532 594.895336 67.839496 590.893904 75.971093 C 586.897836 84.059779 579.806825 89.251986 569.631602 91.558442 L 624.680797 146.607637 L 624.680797 179.997605 L 611.051253 179.997605 L 500.695398 69.904578 L 500.695398 179.997605 L 467.300066 179.997605 L 467.300066 -6.99158 Z M 500.695398 69.904578 L 563.243256 69.904578 L 563.243256 26.403752 L 500.695398 26.403752 Z M 759.066702 -6.99158 C 773.109262 -6.99158 785.832314 -4.990863 797.219769 -0.989431 C 808.655497 3.006637 818.374794 8.745957 826.377659 16.228528 C 834.375159 23.705736 840.50604 32.835009 844.770301 43.621712 C 849.072109 54.403051 851.228377 66.471714 851.228377 79.816973 L 851.228377 93.189052 C 851.228377 106.191025 849.072109 118.03977 844.770301 128.735288 C 840.50604 139.387894 834.375159 148.495712 826.377659 156.064105 C 818.374794 163.627134 808.655497 169.522005 797.219769 173.737992 C 785.832314 177.911067 773.109262 179.997605 759.066702 179.997605 L 729.651347 179.997605 C 715.608787 179.997605 702.869642 177.911067 691.433913 173.737992 C 680.041096 169.522005 670.343254 163.627134 662.34039 156.064105 C 654.342889 148.495712 648.190553 139.387894 643.883381 128.735288 C 639.624484 118.03977 637.495035 106.191025 637.495035 93.189052 L 637.495035 79.816973 C 637.495035 66.471714 639.624484 54.403051 643.883381 43.621712 C 648.190553 32.835009 654.342889 23.705736 662.34039 16.228528 C 670.343254 8.745957 680.041096 3.006637 691.433913 -0.989431 C 702.869642 -4.990863 715.608787 -6.99158 729.651347 -6.99158 Z M 817.833045 79.816973 C 817.833045 63.253404 813.00558 50.20852 803.350649 40.687686 C 793.743994 31.161487 780.763476 26.403752 764.41446 26.403752 L 724.303588 26.403752 C 707.911662 26.403752 694.952599 31.161487 685.431765 40.687686 C 675.910931 50.20852 671.147832 63.253404 671.147832 79.816973 L 671.147832 93.189052 C 671.147832 101.191917 672.429792 108.449206 674.993712 114.971648 C 677.605907 121.451179 681.215779 127.061766 685.823326 131.80341 C 690.473784 136.496779 696.041461 140.149561 702.520992 142.756392 C 709.043434 145.325677 716.306087 146.607637 724.303588 146.607637 L 764.41446 146.607637 C 772.417325 146.607637 779.701434 145.325677 786.266786 142.756392 C 792.87505 140.149561 798.485637 136.496779 803.093185 131.80341 C 807.743643 127.061766 811.353514 121.451179 813.917434 114.971648 C 816.52963 108.449206 817.833045 101.191917 817.833045 93.189052 Z M 959.93753 179.997605 C 945.498045 179.997605 932.587258 177.911067 921.19444 173.737992 C 909.801622 169.522005 900.125236 163.627134 892.170646 156.064105 C 884.253603 148.495712 878.213908 139.387894 874.035468 128.735288 C 869.862393 118.03977 867.775855 106.191025 867.775855 93.189052 L 867.775855 79.816973 C 867.775855 66.820364 869.862393 55.035985 874.035468 44.4692 C 878.213908 33.859504 884.253603 24.730231 892.170646 17.076017 C 900.125236 9.378892 909.801622 3.441109 921.19444 -0.731966 C 932.587258 -4.905042 945.498045 -6.99158 959.93753 -6.99158 L 987.97974 -6.99158 C 1000.284412 -6.99158 1010.872653 -5.16787 1019.744461 -1.515088 C 1028.65918 2.137694 1035.439087 7.072436 1040.094909 13.294502 L 1040.094909 59.273427 C 1036.876599 49.618496 1031.030002 41.728272 1022.549755 35.597392 C 1014.112418 29.466511 1003.395445 26.403752 990.393472 26.403752 L 954.584408 26.403752 C 946.586907 26.403752 939.324254 27.707168 932.801812 30.313999 C 926.322281 32.87792 920.759968 36.487791 916.104146 41.143613 C 911.496599 45.75116 907.886727 51.361748 905.279896 57.970011 C 902.715976 64.535364 901.428652 71.819473 901.428652 79.816973 L 901.428652 93.189052 C 901.428652 101.191917 902.715976 108.492117 905.279896 115.105744 C 907.886727 121.671097 911.496599 127.27632 916.104146 131.932143 C 920.759968 136.53969 926.322281 140.149561 932.801812 142.756392 C 939.324254 145.325677 946.586907 146.607637 954.584408 146.607637 L 990.393472 146.607637 C 1003.395445 146.607637 1014.112418 143.539514 1022.549755 137.408634 C 1031.030002 131.234842 1036.876599 123.344618 1040.094909 113.732599 L 1040.094909 159.716887 C 1035.439087 166.105233 1028.65918 171.088249 1019.744461 174.649846 C 1010.872653 178.216806 1000.284412 179.997605 987.97974 179.997605 Z M 1217.455982 146.607637 L 1217.455982 179.997605 L 1203.56361 179.997605 L 1089.490606 66.707723 L 1089.490606 179.997605 L 1056.095274 179.997605 L 1056.095274 -6.99158 L 1089.490606 -6.99158 L 1089.490606 66.450258 L 1136.515481 66.450258 Z M 1199.846461 -6.99158 L 1190.196895 18.379432 C 1183.803185 35.291652 1176.953548 47.531958 1169.647984 55.100351 C 1162.34242 62.66338 1153.34188 66.450258 1142.646362 66.450258 L 1136.515481 66.450258 L 1163.779932 -6.99158 Z M 1199.846461 -6.99158 " stroke="#1a1a18" stroke-width="20.036699" stroke-opacity="1" stroke-miterlimit="4"/><path stroke-linecap="butt" transform="matrix(0.728255, 0, 0, 0.728255, -11.829167, 410.083839)" fill="none" stroke-linejoin="miter" d="M 346.860172 274.905571 C 362.163237 274.905571 373.947616 278.885548 382.207945 286.840138 C 390.511186 294.751817 394.662806 306.536197 394.662806 322.193275 C 394.662806 341.803512 388.295915 357.170943 375.556771 368.300932 C 362.817627 379.436286 344.510806 384.998598 320.636308 384.998598 L 289.134415 384.998598 C 273.262782 384.998598 260.566549 383.2178 251.045715 379.65084 C 241.52488 376.083879 234.46069 371.106226 229.847778 364.71788 L 229.847778 318.733592 C 233.023178 328.168605 239.154059 336.015918 248.240421 342.280895 C 257.326783 348.497597 270.071292 351.60863 286.463218 351.60863 L 361.272838 351.60863 L 361.272838 308.300903 L 283.529192 308.300903 C 266.048404 308.300903 252.590504 304.25656 243.155491 296.167874 C 233.720478 288.079188 229.00029 276.273353 229.00029 260.750371 C 229.00029 251.143715 230.872274 242.470369 234.610877 234.730333 C 238.349481 226.990297 243.504141 220.403489 250.069494 214.964545 C 256.677757 209.530964 264.52507 205.357889 273.611433 202.445318 C 282.703159 199.484473 292.594099 198.009414 303.289616 198.009414 L 328.660628 198.009414 C 334.705687 198.009414 340.750747 198.465341 346.790442 199.377196 C 352.878412 200.24614 358.596276 201.571011 363.944035 203.357173 C 369.291794 205.137971 374.054893 207.224509 378.227968 209.616786 C 382.401044 212.009063 385.64081 214.814357 387.947265 218.032667 L 387.947265 264.011592 C 384.600223 254.362025 378.426431 246.509348 369.42589 240.469653 C 360.425349 234.424593 347.63793 231.399382 331.074361 231.399382 L 262.395622 231.399382 L 262.395622 274.905571 Z M 581.668082 274.905571 L 581.668082 308.300903 L 441.371214 308.300903 L 441.371214 351.60863 L 581.668082 351.60863 L 581.668082 384.998598 L 447.566461 384.998598 C 434.569852 384.998598 424.721823 380.326685 418.022374 370.977494 C 411.328288 361.628303 407.981246 347.864663 407.981246 329.691938 C 407.981246 311.690857 410.738265 298.061313 416.263031 288.797944 C 421.782433 279.534574 430.155403 274.905571 441.371214 274.905571 C 430.155403 274.208271 421.782433 270.66813 416.263031 264.27442 C 410.738265 257.8378 407.981246 248.923081 407.981246 237.530263 C 407.981246 224.705297 411.328288 214.921634 418.022374 208.184638 C 424.721823 201.399367 434.569852 198.009414 447.566461 198.009414 L 581.668082 198.009414 L 581.668082 231.399382 L 441.371214 231.399382 L 441.371214 274.905571 Z M 714.991944 274.905571 C 730.295009 274.905571 742.079388 278.885548 750.339717 286.840138 C 758.642957 294.751817 762.799941 306.536197 762.799941 322.193275 C 762.799941 341.803512 756.427687 357.170943 743.688543 368.300932 C 730.949398 379.436286 712.642577 384.998598 688.76808 384.998598 L 657.266187 384.998598 C 641.399918 384.998598 628.698321 383.2178 619.177486 379.65084 C 609.656652 376.083879 602.592461 371.106226 597.97955 364.71788 L 597.97955 318.733592 C 601.15495 328.168605 607.28583 336.015918 616.372193 342.280895 C 625.463919 348.497597 638.203063 351.60863 654.59499 351.60863 L 729.40461 351.60863 L 729.40461 308.300903 L 651.660964 308.300903 C 634.180176 308.300903 620.722275 304.25656 611.287263 296.167874 C 601.85225 288.079188 597.132062 276.273353 597.132062 260.750371 C 597.132062 251.143715 599.004046 242.470369 602.742649 234.730333 C 606.481253 226.990297 611.635913 220.403489 618.201266 214.964545 C 624.809529 209.530964 632.656842 205.357889 641.743205 202.445318 C 650.834931 199.484473 660.725871 198.009414 671.421388 198.009414 L 696.7924 198.009414 C 702.837459 198.009414 708.882518 198.465341 714.922214 199.377196 C 721.010184 200.24614 726.728048 201.571011 732.075807 203.357173 C 737.423566 205.137971 742.186665 207.224509 746.35974 209.616786 C 750.53818 212.009063 753.772581 214.814357 756.079037 218.032667 L 756.079037 264.011592 C 752.731994 254.362025 746.558203 246.509348 737.557662 240.469653 C 728.557121 234.424593 715.769702 231.399382 699.206133 231.399382 L 630.527394 231.399382 L 630.527394 274.905571 Z M 893.447242 274.905571 C 908.750307 274.905571 920.534686 278.885548 928.795016 286.840138 C 937.10362 294.751817 941.25524 306.536197 941.25524 322.193275 C 941.25524 341.803512 934.882986 357.170943 922.143841 368.300932 C 909.404697 379.436286 891.097876 384.998598 867.228742 384.998598 L 835.721486 384.998598 C 819.855217 384.998598 807.158983 383.2178 797.632785 379.65084 C 788.111951 376.083879 781.04776 371.106226 776.434849 364.71788 L 776.434849 318.733592 C 779.610248 328.168605 785.741129 336.015918 794.827491 342.280895 C 803.919218 348.497597 816.658362 351.60863 833.050288 351.60863 L 907.859908 351.60863 L 907.859908 308.300903 L 830.116262 308.300903 C 812.635474 308.300903 799.177574 304.25656 789.742561 296.167874 C 780.307549 288.079188 775.58736 276.273353 775.58736 260.750371 C 775.58736 251.143715 777.459344 242.470369 781.197948 234.730333 C 784.936551 226.990297 790.091212 220.403489 796.656564 214.964545 C 803.264828 209.530964 811.112141 205.357889 820.198503 202.445318 C 829.290229 199.484473 839.181169 198.009414 849.876687 198.009414 L 875.247698 198.009414 C 881.292758 198.009414 887.337817 198.465341 893.382876 199.377196 C 899.465482 200.24614 905.183347 201.571011 910.531106 203.357173 C 915.884228 205.137971 920.641963 207.224509 924.815039 209.616786 C 928.993478 212.009063 932.233244 214.814357 934.534335 218.032667 L 934.534335 264.011592 C 931.187293 254.362025 925.013501 246.509348 916.01296 240.469653 C 907.01242 234.424593 894.230365 231.399382 877.661431 231.399382 L 808.982692 231.399382 L 808.982692 274.905571 Z M 990.114552 198.009414 L 990.114552 384.998598 L 956.71922 384.998598 L 956.71922 198.009414 Z M 1129.070457 198.009414 C 1143.113017 198.009414 1155.830706 200.01013 1167.223524 204.006199 C 1178.659253 208.007631 1188.37855 213.746951 1196.381414 221.229522 C 1204.378915 228.706729 1210.509796 237.836002 1214.774057 248.622705 C 1219.075865 259.404044 1221.226769 271.467343 1221.226769 284.817967 L 1221.226769 298.190046 C 1221.226769 311.192019 1219.075865 323.040764 1214.774057 333.736281 C 1210.509796 344.388888 1204.378915 353.496706 1196.381414 361.065098 C 1188.37855 368.628127 1178.659253 374.522999 1167.223524 378.738985 C 1155.830706 382.912061 1143.113017 384.998598 1129.070457 384.998598 L 1099.655102 384.998598 C 1085.612542 384.998598 1072.868034 382.912061 1061.432305 378.738985 C 1050.044851 374.522999 1040.34701 368.628127 1032.344145 361.065098 C 1024.346644 353.496706 1018.194308 344.388888 1013.887136 333.736281 C 1009.628239 323.040764 1007.498791 311.192019 1007.498791 298.190046 L 1007.498791 284.817967 C 1007.498791 271.467343 1009.628239 259.404044 1013.887136 248.622705 C 1018.194308 237.836002 1024.346644 228.706729 1032.344145 221.229522 C 1040.34701 213.746951 1050.044851 208.007631 1061.432305 204.006199 C 1072.868034 200.01013 1085.612542 198.009414 1099.655102 198.009414 Z M 1187.836801 284.817967 C 1187.836801 268.254397 1183.009335 255.209513 1173.354405 245.683315 C 1163.747749 236.162481 1150.767231 231.399382 1134.418216 231.399382 L 1094.307344 231.399382 C 1077.915417 231.399382 1064.956355 236.162481 1055.435521 245.683315 C 1045.914686 255.209513 1041.151587 268.254397 1041.151587 284.817967 L 1041.151587 298.190046 C 1041.151587 306.187546 1042.433548 313.4502 1044.997468 319.972641 C 1047.609663 326.452173 1051.21417 332.06276 1055.827082 336.79904 C 1060.47754 341.497773 1066.045216 345.150555 1072.524748 347.757386 C 1079.047189 350.321306 1086.304479 351.60863 1094.307344 351.60863 L 1134.418216 351.60863 C 1142.42108 351.60863 1149.699825 350.321306 1156.270542 347.757386 C 1162.878805 345.150555 1168.484029 341.497773 1173.09694 336.79904 C 1177.747398 332.06276 1181.35727 326.452173 1183.92119 319.972641 C 1186.533385 313.4502 1187.836801 306.187546 1187.836801 298.190046 Z M 1448.578926 384.998598 L 1415.183594 384.998598 L 1271.958065 245.554583 L 1271.958065 384.998598 L 1238.562733 384.998598 L 1238.562733 198.009414 L 1271.958065 198.009414 L 1415.183594 337.190601 L 1415.183594 198.009414 L 1448.578926 198.009414 Z M 1448.578926 384.998598 " stroke="#1a1a18" stroke-width="20.036699" stroke-opacity="1" stroke-miterlimit="4"/><g fill="#ffffff" fill-opacity="1"><g transform="translate(321.882245, 541.169713)"><g><path d="M 68.09375 -136.1875 C 79.507812 -136.1875 87.84375 -133.203125 93.09375 -127.234375 C 98.34375 -121.265625 100.96875 -111.734375 100.96875 -98.640625 C 100.96875 -89.296875 99.507812 -81.671875 96.59375 -75.765625 C 93.675781 -69.867188 88.519531 -66.078125 81.125 -64.390625 L 121.203125 -24.3125 L 121.203125 0 L 111.28125 0 L 30.9375 -80.15625 L 30.9375 0 L 6.609375 0 L 6.609375 -136.1875 Z M 30.9375 -80.15625 L 76.453125 -80.15625 L 76.453125 -111.859375 L 30.9375 -111.859375 Z M 30.9375 -80.15625 "/></g></g></g><g fill="#ffffff" fill-opacity="1"><g transform="translate(446.396136, 541.169713)"><g><path d="M 94.546875 -136.1875 C 104.796875 -136.1875 114.070312 -134.722656 122.375 -131.796875 C 130.675781 -128.878906 137.742188 -124.695312 143.578125 -119.25 C 149.410156 -113.8125 153.882812 -107.164062 157 -99.3125 C 160.113281 -91.46875 161.671875 -82.679688 161.671875 -72.953125 L 161.671875 -63.234375 C 161.671875 -53.765625 160.113281 -45.140625 157 -37.359375 C 153.882812 -29.578125 149.410156 -22.925781 143.578125 -17.40625 C 137.742188 -11.894531 130.675781 -7.613281 122.375 -4.5625 C 114.070312 -1.519531 104.796875 0 94.546875 0 L 73.15625 0 C 62.90625 0 53.628906 -1.519531 45.328125 -4.5625 C 37.023438 -7.613281 29.957031 -11.894531 24.125 -17.40625 C 18.289062 -22.925781 13.816406 -29.578125 10.703125 -37.359375 C 7.585938 -45.140625 6.03125 -53.765625 6.03125 -63.234375 L 6.03125 -72.953125 C 6.03125 -82.679688 7.585938 -91.46875 10.703125 -99.3125 C 13.816406 -107.164062 18.289062 -113.8125 24.125 -119.25 C 29.957031 -124.695312 37.023438 -128.878906 45.328125 -131.796875 C 53.628906 -134.722656 62.90625 -136.1875 73.15625 -136.1875 Z M 137.34375 -72.953125 C 137.34375 -85.015625 133.84375 -94.515625 126.84375 -101.453125 C 119.84375 -108.390625 110.375 -111.859375 98.4375 -111.859375 L 69.265625 -111.859375 C 57.328125 -111.859375 47.890625 -108.390625 40.953125 -101.453125 C 34.015625 -94.515625 30.546875 -85.015625 30.546875 -72.953125 L 30.546875 -63.234375 C 30.546875 -57.390625 31.484375 -52.097656 33.359375 -47.359375 C 35.242188 -42.628906 37.867188 -38.546875 41.234375 -35.109375 C 44.609375 -31.671875 48.660156 -29.007812 53.390625 -27.125 C 58.128906 -25.25 63.421875 -24.3125 69.265625 -24.3125 L 98.4375 -24.3125 C 104.28125 -24.3125 109.597656 -25.25 114.390625 -27.125 C 119.191406 -29.007812 123.273438 -31.671875 126.640625 -35.109375 C 130.015625 -38.546875 132.640625 -42.628906 134.515625 -47.359375 C 136.398438 -52.097656 137.34375 -57.390625 137.34375 -63.234375 Z M 137.34375 -72.953125 "/></g></g></g><g fill="#ffffff" fill-opacity="1"><g transform="translate(614.100776, 541.169713)"><g><path d="M 73.15625 0 C 62.644531 0 53.238281 -1.519531 44.9375 -4.5625 C 36.632812 -7.613281 29.597656 -11.894531 23.828125 -17.40625 C 18.054688 -22.925781 13.644531 -29.578125 10.59375 -37.359375 C 7.550781 -45.140625 6.03125 -53.765625 6.03125 -63.234375 L 6.03125 -72.953125 C 6.03125 -82.421875 7.550781 -91.015625 10.59375 -98.734375 C 13.644531 -106.453125 18.054688 -113.097656 23.828125 -118.671875 C 29.597656 -124.253906 36.632812 -128.566406 44.9375 -131.609375 C 53.238281 -134.660156 62.644531 -136.1875 73.15625 -136.1875 L 93.578125 -136.1875 C 102.523438 -136.1875 110.238281 -134.851562 116.71875 -132.1875 C 123.207031 -129.53125 128.140625 -125.929688 131.515625 -121.390625 L 131.515625 -87.9375 C 129.179688 -94.9375 124.929688 -100.671875 118.765625 -105.140625 C 112.609375 -109.617188 104.796875 -111.859375 95.328125 -111.859375 L 69.265625 -111.859375 C 63.421875 -111.859375 58.128906 -110.914062 53.390625 -109.03125 C 48.660156 -107.15625 44.609375 -104.53125 41.234375 -101.15625 C 37.867188 -97.789062 35.242188 -93.707031 33.359375 -88.90625 C 31.484375 -84.101562 30.546875 -78.785156 30.546875 -72.953125 L 30.546875 -63.234375 C 30.546875 -57.390625 31.484375 -52.066406 33.359375 -47.265625 C 35.242188 -42.472656 37.867188 -38.390625 41.234375 -35.015625 C 44.609375 -31.640625 48.660156 -29.007812 53.390625 -27.125 C 58.128906 -25.25 63.421875 -24.3125 69.265625 -24.3125 L 95.328125 -24.3125 C 104.796875 -24.3125 112.609375 -26.546875 118.765625 -31.015625 C 124.929688 -35.492188 129.179688 -41.238281 131.515625 -48.25 L 131.515625 -14.78125 C 128.140625 -10.113281 123.207031 -6.484375 116.71875 -3.890625 C 110.238281 -1.296875 102.523438 0 93.578125 0 Z M 73.15625 0 "/></g></g></g><g fill="#ffffff" fill-opacity="1"><g transform="translate(750.676919, 541.169713)"><g><path d="M 124.125 -24.3125 L 124.125 0 L 114 0 L 30.9375 -82.484375 L 30.9375 0 L 6.609375 0 L 6.609375 -136.1875 L 30.9375 -136.1875 L 30.9375 -82.6875 L 65.171875 -82.6875 Z M 111.28125 -136.1875 L 104.28125 -117.703125 C 99.613281 -105.378906 94.617188 -96.460938 89.296875 -90.953125 C 83.984375 -85.441406 77.429688 -82.6875 69.640625 -82.6875 L 65.171875 -82.6875 L 85.015625 -136.1875 Z M 111.28125 -136.1875 "/></g></g></g><g fill="#ffffff" fill-opacity="1"><g transform="translate(150.287195, 690.461958)"><g><path d="M 90.46875 -80.15625 C 101.625 -80.15625 110.210938 -77.269531 116.234375 -71.5 C 122.265625 -65.726562 125.28125 -57.132812 125.28125 -45.71875 C 125.28125 -31.445312 120.644531 -20.257812 111.375 -12.15625 C 102.101562 -4.050781 88.78125 0 71.40625 0 L 48.4375 0 C 36.894531 0 27.65625 -1.296875 20.71875 -3.890625 C 13.78125 -6.484375 8.625 -10.113281 5.25 -14.78125 L 5.25 -48.25 C 7.582031 -41.375 12.054688 -35.664062 18.671875 -31.125 C 25.285156 -26.582031 34.5625 -24.3125 46.5 -24.3125 L 100.96875 -24.3125 L 100.96875 -55.828125 L 44.359375 -55.828125 C 31.648438 -55.828125 21.859375 -58.773438 14.984375 -64.671875 C 8.109375 -70.578125 4.671875 -79.175781 4.671875 -90.46875 C 4.671875 -97.46875 6.03125 -103.785156 8.75 -109.421875 C 11.476562 -115.066406 15.238281 -119.867188 20.03125 -123.828125 C 24.832031 -127.785156 30.539062 -130.832031 37.15625 -132.96875 C 43.769531 -135.113281 50.96875 -136.1875 58.75 -136.1875 L 77.234375 -136.1875 C 81.640625 -136.1875 86.046875 -135.859375 90.453125 -135.203125 C 94.867188 -134.554688 99.019531 -133.582031 102.90625 -132.28125 C 106.800781 -130.988281 110.269531 -129.46875 113.3125 -127.71875 C 116.363281 -125.96875 118.734375 -123.925781 120.421875 -121.59375 L 120.421875 -88.125 C 117.960938 -95.132812 113.457031 -100.84375 106.90625 -105.25 C 100.351562 -109.65625 91.046875 -111.859375 78.984375 -111.859375 L 28.984375 -111.859375 L 28.984375 -80.15625 Z M 90.46875 -80.15625 "/></g></g></g><g fill="#ffffff" fill-opacity="1"><g transform="translate(280.248549, 690.461958)"><g><path d="M 131.515625 -80.15625 L 131.515625 -55.828125 L 29.375 -55.828125 L 29.375 -24.3125 L 131.515625 -24.3125 L 131.515625 0 L 33.84375 0 C 24.382812 0 17.222656 -3.398438 12.359375 -10.203125 C 7.492188 -17.015625 5.0625 -27.035156 5.0625 -40.265625 C 5.0625 -53.367188 7.070312 -63.289062 11.09375 -70.03125 C 15.113281 -76.78125 21.207031 -80.15625 29.375 -80.15625 C 21.207031 -80.675781 15.113281 -83.269531 11.09375 -87.9375 C 7.070312 -92.601562 5.0625 -99.085938 5.0625 -107.390625 C 5.0625 -116.722656 7.492188 -123.851562 12.359375 -128.78125 C 17.222656 -133.71875 24.382812 -136.1875 33.84375 -136.1875 L 131.515625 -136.1875 L 131.515625 -111.859375 L 29.375 -111.859375 L 29.375 -80.15625 Z M 131.515625 -80.15625 "/></g></g></g><g fill="#ffffff" fill-opacity="1"><g transform="translate(418.381169, 690.461958)"><g><path d="M 90.46875 -80.15625 C 101.625 -80.15625 110.210938 -77.269531 116.234375 -71.5 C 122.265625 -65.726562 125.28125 -57.132812 125.28125 -45.71875 C 125.28125 -31.445312 120.644531 -20.257812 111.375 -12.15625 C 102.101562 -4.050781 88.78125 0 71.40625 0 L 48.4375 0 C 36.894531 0 27.65625 -1.296875 20.71875 -3.890625 C 13.78125 -6.484375 8.625 -10.113281 5.25 -14.78125 L 5.25 -48.25 C 7.582031 -41.375 12.054688 -35.664062 18.671875 -31.125 C 25.285156 -26.582031 34.5625 -24.3125 46.5 -24.3125 L 100.96875 -24.3125 L 100.96875 -55.828125 L 44.359375 -55.828125 C 31.648438 -55.828125 21.859375 -58.773438 14.984375 -64.671875 C 8.109375 -70.578125 4.671875 -79.175781 4.671875 -90.46875 C 4.671875 -97.46875 6.03125 -103.785156 8.75 -109.421875 C 11.476562 -115.066406 15.238281 -119.867188 20.03125 -123.828125 C 24.832031 -127.785156 30.539062 -130.832031 37.15625 -132.96875 C 43.769531 -135.113281 50.96875 -136.1875 58.75 -136.1875 L 77.234375 -136.1875 C 81.640625 -136.1875 86.046875 -135.859375 90.453125 -135.203125 C 94.867188 -134.554688 99.019531 -133.582031 102.90625 -132.28125 C 106.800781 -130.988281 110.269531 -129.46875 113.3125 -127.71875 C 116.363281 -125.96875 118.734375 -123.925781 120.421875 -121.59375 L 120.421875 -88.125 C 117.960938 -95.132812 113.457031 -100.84375 106.90625 -105.25 C 100.351562 -109.65625 91.046875 -111.859375 78.984375 -111.859375 L 28.984375 -111.859375 L 28.984375 -80.15625 Z M 90.46875 -80.15625 "/></g></g></g><g fill="#ffffff" fill-opacity="1"><g transform="translate(548.342523, 690.461958)"><g><path d="M 90.46875 -80.15625 C 101.625 -80.15625 110.210938 -77.269531 116.234375 -71.5 C 122.265625 -65.726562 125.28125 -57.132812 125.28125 -45.71875 C 125.28125 -31.445312 120.644531 -20.257812 111.375 -12.15625 C 102.101562 -4.050781 88.78125 0 71.40625 0 L 48.4375 0 C 36.894531 0 27.65625 -1.296875 20.71875 -3.890625 C 13.78125 -6.484375 8.625 -10.113281 5.25 -14.78125 L 5.25 -48.25 C 7.582031 -41.375 12.054688 -35.664062 18.671875 -31.125 C 25.285156 -26.582031 34.5625 -24.3125 46.5 -24.3125 L 100.96875 -24.3125 L 100.96875 -55.828125 L 44.359375 -55.828125 C 31.648438 -55.828125 21.859375 -58.773438 14.984375 -64.671875 C 8.109375 -70.578125 4.671875 -79.175781 4.671875 -90.46875 C 4.671875 -97.46875 6.03125 -103.785156 8.75 -109.421875 C 11.476562 -115.066406 15.238281 -119.867188 20.03125 -123.828125 C 24.832031 -127.785156 30.539062 -130.832031 37.15625 -132.96875 C 43.769531 -135.113281 50.96875 -136.1875 58.75 -136.1875 L 77.234375 -136.1875 C 81.640625 -136.1875 86.046875 -135.859375 90.453125 -135.203125 C 94.867188 -134.554688 99.019531 -133.582031 102.90625 -132.28125 C 106.800781 -130.988281 110.269531 -129.46875 113.3125 -127.71875 C 116.363281 -125.96875 118.734375 -123.925781 120.421875 -121.59375 L 120.421875 -88.125 C 117.960938 -95.132812 113.457031 -100.84375 106.90625 -105.25 C 100.351562 -109.65625 91.046875 -111.859375 78.984375 -111.859375 L 28.984375 -111.859375 L 28.984375 -80.15625 Z M 90.46875 -80.15625 "/></g></g></g><g fill="#ffffff" fill-opacity="1"><g transform="translate(678.303877, 690.461958)"><g><path d="M 30.9375 -136.1875 L 30.9375 0 L 6.609375 0 L 6.609375 -136.1875 Z M 30.9375 -136.1875 "/></g></g></g><g fill="#ffffff" fill-opacity="1"><g transform="translate(715.852562, 690.461958)"><g><path d="M 94.546875 -136.1875 C 104.796875 -136.1875 114.070312 -134.722656 122.375 -131.796875 C 130.675781 -128.878906 137.742188 -124.695312 143.578125 -119.25 C 149.410156 -113.8125 153.882812 -107.164062 157 -99.3125 C 160.113281 -91.46875 161.671875 -82.679688 161.671875 -72.953125 L 161.671875 -63.234375 C 161.671875 -53.765625 160.113281 -45.140625 157 -37.359375 C 153.882812 -29.578125 149.410156 -22.925781 143.578125 -17.40625 C 137.742188 -11.894531 130.675781 -7.613281 122.375 -4.5625 C 114.070312 -1.519531 104.796875 0 94.546875 0 L 73.15625 0 C 62.90625 0 53.628906 -1.519531 45.328125 -4.5625 C 37.023438 -7.613281 29.957031 -11.894531 24.125 -17.40625 C 18.289062 -22.925781 13.816406 -29.578125 10.703125 -37.359375 C 7.585938 -45.140625 6.03125 -53.765625 6.03125 -63.234375 L 6.03125 -72.953125 C 6.03125 -82.679688 7.585938 -91.46875 10.703125 -99.3125 C 13.816406 -107.164062 18.289062 -113.8125 24.125 -119.25 C 29.957031 -124.695312 37.023438 -128.878906 45.328125 -131.796875 C 53.628906 -134.722656 62.90625 -136.1875 73.15625 -136.1875 Z M 137.34375 -72.953125 C 137.34375 -85.015625 133.84375 -94.515625 126.84375 -101.453125 C 119.84375 -108.390625 110.375 -111.859375 98.4375 -111.859375 L 69.265625 -111.859375 C 57.328125 -111.859375 47.890625 -108.390625 40.953125 -101.453125 C 34.015625 -94.515625 30.546875 -85.015625 30.546875 -72.953125 L 30.546875 -63.234375 C 30.546875 -57.390625 31.484375 -52.097656 33.359375 -47.359375 C 35.242188 -42.628906 37.867188 -38.546875 41.234375 -35.109375 C 44.609375 -31.671875 48.660156 -29.007812 53.390625 -27.125 C 58.128906 -25.25 63.421875 -24.3125 69.265625 -24.3125 L 98.4375 -24.3125 C 104.28125 -24.3125 109.597656 -25.25 114.390625 -27.125 C 119.191406 -29.007812 123.273438 -31.671875 126.640625 -35.109375 C 130.015625 -38.546875 132.640625 -42.628906 134.515625 -47.359375 C 136.398438 -52.097656 137.34375 -57.390625 137.34375 -63.234375 Z M 137.34375 -72.953125 "/></g></g></g><g fill="#ffffff" fill-opacity="1"><g transform="translate(883.557202, 690.461958)"><g><path d="M 159.53125 0 L 135.203125 0 L 30.9375 -101.546875 L 30.9375 0 L 6.609375 0 L 6.609375 -136.1875 L 30.9375 -136.1875 L 135.203125 -34.828125 L 135.203125 -136.1875 L 159.53125 -136.1875 Z M 159.53125 0 "/></g></g></g><path stroke-linecap="butt" transform="matrix(0.954591, 0, 0, 0.954591, 614.939566, 634.992691)" fill="none" stroke-linejoin="miter" d="M 15.920068 67.956424 C 15.412651 70.824963 16.693468 74.008591 16.53797 77.188127 C 16.53797 79.397843 16.226973 81.64848 16.226973 83.858196 C 16.226973 88.318548 16.848967 92.897571 17.004465 97.357924 L 17.004465 100.848457 C 17.004465 103.561497 17.159964 106.08221 17.159964 108.799342 C 17.159964 110.542563 17.315462 112.289875 17.315462 113.881689 C 17.50779 116.439231 17.663288 118.648947 17.663288 121.16966 L 17.663288 130.094457 C 17.663288 131.837678 17.50779 133.429492 17.50779 135.172712 L 17.50779 146.458632 C 17.50779 150.415661 17.663288 154.565016 17.663288 158.522045 C 17.663288 160.113859 17.50779 161.701581 17.50779 163.293395 L 17.50779 166.628429 C 17.50779 170.27446 19.717506 169.807965 23.519036 169.807965 L 29.260205 169.807965 C 31.469921 169.807965 33.839228 169.345561 35.778867 168.993644 L 39.113902 168.686739 C 39.113902 167.753747 38.958403 166.783928 38.958403 165.814108 L 38.299581 155.498008 C 38.299581 146.307226 37.833085 136.764526 37.833085 126.448426 C 37.833085 121.366079 37.677586 114.65509 40.198299 112.445374 C 41.012621 112.445374 41.945612 112.600872 42.759933 112.600872 L 43.844331 112.600872 C 46.561463 112.289875 49.430002 112.289875 52.106214 112.289875 C 53.231532 112.289875 54.35685 112.445374 55.637667 112.445374 L 56.877563 112.445374 C 59.435105 112.134377 62.463234 111.82338 64.828449 111.82338 C 65.487272 107.363027 64.828449 103.2505 65.294945 98.790147 C 65.294945 97.046927 65.139446 96.232605 63.236635 96.232605 L 62.152237 96.232605 C 59.279607 96.232605 56.722065 96.077107 53.890355 96.077107 L 49.585501 96.077107 C 48.304684 96.077107 46.868368 95.921608 45.436145 96.077107 L 40.198299 96.077107 L 40.198299 94.79629 C 40.198299 93.245397 40.042801 91.653583 40.042801 90.065861 L 40.042801 88.940542 C 40.042801 82.577379 38.761984 76.373806 38.761984 70.051563 L 38.761984 68.926244 C 38.958403 68.615247 39.113902 68.111923 39.113902 67.956424 L 40.042801 67.956424 C 40.701624 67.956424 41.479116 68.111923 42.293438 68.111923 C 43.377835 68.111923 44.503154 68.267421 45.628472 68.267421 L 61.026919 68.267421 C 65.294945 68.267421 70.066294 68.267421 74.371149 68.770746 C 74.833552 64.62139 74.678054 57.795823 74.989051 52.557977 C 75.144549 51.432659 75.144549 50.659258 75.144549 49.844937 C 74.371149 49.689439 73.24583 49.53394 72.15734 49.53394 L 69.288802 49.53394 C 62.618733 49.53394 56.722065 50.192763 53.076033 50.192763 L 50.710819 50.192763 C 47.838188 50.192763 45.125148 49.844937 42.293438 49.689439 L 38.958403 49.689439 C 38.144082 49.689439 37.366589 49.844937 36.552268 49.844937 L 23.363537 49.844937 C 20.650497 49.844937 20.494998 49.689439 19.410601 49.689439 L 16.53797 49.689439 L 13.980428 49.996344 C 11.611121 50.348261 9.245907 50.659258 6.688365 50.810665 L 7.150769 67.800926 C 8.431586 68.111923 9.712402 67.956424 10.837721 67.956424 C 11.922118 67.956424 13.202935 67.800926 14.483752 67.800926 C 14.950248 67.800926 15.412651 67.956424 15.920068 67.956424 Z M 90.252459 68.111923 L 90.096961 91.461256 C 90.096961 92.431075 89.945554 93.400895 89.945554 94.329794 L 89.945554 101.003955 C 89.945554 104.842314 89.790056 108.488345 89.790056 111.978878 L 89.790056 123.731294 C 89.790056 127.377325 90.096961 128.813641 90.252459 131.023357 L 90.252459 133.429492 C 90.252459 137.075523 90.563457 140.721555 90.563457 144.367586 L 90.563457 145.644311 C 96.112299 145.955308 104.218683 148.205945 113.294887 148.205945 L 114.223786 143.434595 L 114.223786 131.178855 C 114.223786 127.688322 114.068288 124.701113 113.601792 121.366079 L 112.631972 113.726191 L 112.631972 106.08221 L 114.571612 106.08221 C 117.403322 106.08221 118.373142 105.464308 121.55677 105.464308 C 124.736306 105.464308 128.07134 110.698061 130.125558 115.469411 L 131.250876 118.186543 C 132.646271 122.605975 132.84269 125.630013 133.309185 129.276044 C 133.771589 136.453529 134.082586 138.974242 134.58591 140.721555 L 135.207904 143.434595 L 135.829899 145.955308 L 137.262122 150.260162 L 138.231942 152.162973 C 144.439607 162.634572 147.271317 162.634572 150.954177 164.574212 L 153.47489 165.814108 C 161.274369 168.993644 171.279472 169.656558 179.541355 169.656558 L 186.366922 169.656558 C 186.366922 169.656558 187.336742 169.50106 190.012954 169.50106 L 189.546458 151.851976 L 176.668724 151.229982 C 175.547498 151.385481 174.614507 151.385481 173.644687 151.385481 C 172.560289 151.385481 171.59047 151.229982 170.62065 151.229982 L 164.453905 149.953257 C 163.01759 149.486762 161.892271 148.67244 160.766953 147.894948 L 159.21606 146.458632 C 158.868234 145.799809 158.24624 145.337406 157.935243 144.715412 L 156.965423 140.099561 L 150.954177 113.881689 L 149.984357 111.164557 C 149.521954 109.265838 148.396635 107.518525 147.426816 105.926711 L 146.649323 104.842314 C 145.835002 103.716995 145.368506 102.902674 144.439607 101.973775 C 144.750604 101.973775 146.96032 101.159454 149.366455 99.723138 L 151.576171 98.172245 C 153.941386 96.077107 155.881025 93.711892 157.120922 90.376858 L 158.24624 84.983514 C 158.868234 80.523161 159.371558 76.062809 159.371558 71.446957 C 159.371558 68.926244 158.868234 64.776889 157.779744 62.100677 L 156.347521 58.258226 C 152.856988 51.588158 150.954177 49.067444 142.847793 47.47563 L 136.333223 46.043407 C 132.183867 45.421413 127.915842 44.451593 126.946022 44.296095 L 102.782368 44.296095 C 97.082119 44.296095 93.742992 45.887909 90.407958 45.887909 L 85.018706 46.043407 L 84.048886 67.178932 Z M 112.631972 87.815224 C 112.169569 85.916505 111.703073 83.547199 111.703073 81.64848 C 111.703073 81.145155 111.547575 80.834158 111.547575 80.367663 L 111.547575 76.373806 C 111.547575 75.90731 111.392076 75.596313 111.392076 75.133909 L 111.392076 69.855143 C 111.392076 68.770746 111.547575 67.489929 111.547575 66.36461 C 111.547575 65.59121 111.858572 64.776889 111.858572 63.999396 C 111.858572 62.718579 112.01407 61.597353 112.01407 60.353364 C 113.294887 60.197866 114.379285 60.005539 115.660102 60.005539 L 117.247824 60.005539 C 118.217643 60.005539 119.306133 60.197866 120.431452 60.197866 C 132.490772 60.197866 129.81456 63.029576 130.125558 63.5329 L 131.250876 64.776889 L 132.028369 66.36461 C 132.339366 67.023433 132.490772 67.645427 132.646271 68.267421 L 132.998188 69.703737 L 132.998188 78.624442 C 132.998188 81.803978 130.90305 87.504227 125.047303 87.504227 C 124.736306 87.504227 124.384388 87.348729 124.077483 87.348729 L 121.401271 87.348729 C 120.58695 87.348729 119.653959 87.504227 118.684139 87.504227 C 118.062145 87.504227 117.247824 87.659726 116.629922 87.659726 C 115.504603 87.659726 114.571612 87.815224 113.601792 87.815224 Z M 239.731564 50.50376 C 235.467631 49.222943 226.235928 48.756447 214.483513 48.756447 L 213.047197 48.756447 C 208.93467 48.756447 204.011914 48.911946 200.013965 48.911946 L 194.780212 48.911946 C 188.883543 48.911946 182.872297 48.756447 177.634452 48.756447 L 167.43293 48.756447 C 167.43293 49.844937 167.629349 51.27716 167.629349 52.402479 C 167.629349 57.951321 167.277431 62.56308 167.277431 66.209112 C 167.277431 69.39274 167.629349 71.446957 167.629349 74.315496 C 168.558248 74.315496 169.683566 74.16409 170.616558 74.16409 L 176.664632 73.853093 L 178.100948 73.853093 C 178.100948 74.16409 177.945449 74.315496 177.945449 74.626493 C 177.945449 77.810121 177.634452 81.145155 177.286626 84.791187 L 177.286626 87.815224 C 177.286626 92.586574 176.820131 97.357924 176.820131 102.747176 L 176.820131 109.417244 C 176.820131 112.911869 176.664632 116.439231 176.664632 120.085262 L 176.664632 123.420297 C 176.664632 125.167609 176.509134 126.91083 176.509134 128.658142 C 176.509134 131.023357 176.353635 133.273993 176.202229 135.639208 C 176.202229 136.764526 176.04673 138.045343 176.04673 139.129741 C 175.694812 141.998279 175.539314 144.715412 175.539314 147.547122 L 175.232409 152.162973 L 174.610415 157.552225 L 174.299418 159.95836 L 175.232409 167.753747 C 179.999667 167.753747 184.460019 167.56142 188.572546 167.405922 L 190.008862 167.405922 C 200.324962 168.064744 209.401166 168.375742 217.974046 168.375742 L 222.123401 168.375742 C 229.104467 168.375742 235.930034 167.753747 241.982201 167.753747 L 245.124908 167.753747 C 251.639479 167.753747 257.847144 167.405922 262.618494 167.405922 C 263.236396 160.887259 263.73972 155.342509 264.050717 150.571159 L 211.610882 150.571159 C 206.066132 150.571159 202.731097 150.415661 198.115246 149.953257 C 198.115246 148.361443 198.270745 146.925128 198.270745 145.026409 C 198.270745 143.590093 198.426243 141.998279 198.426243 140.410558 C 198.426243 139.285239 198.581742 138.200842 198.581742 137.075523 C 198.581742 134.706217 198.929567 132.459672 198.929567 130.094457 C 198.929567 128.969139 199.085066 127.688322 199.085066 126.599832 C 199.085066 125.478606 199.240564 124.353288 199.240564 123.264798 C 199.240564 122.13948 199.396063 121.018253 199.396063 119.929764 L 199.858466 111.512382 C 201.45028 111.512382 203.042094 111.320055 204.474318 111.320055 C 206.532627 111.320055 208.93467 110.85356 211.610882 110.85356 C 212.891699 110.85356 214.328014 110.85356 215.919828 110.698061 C 217.974046 110.85356 220.998083 111.009058 223.870714 111.009058 L 229.259966 111.009058 C 242.1377 111.009058 237.988344 99.412141 237.988344 97.357924 C 234.808808 97.357924 231.780679 97.202425 228.601143 96.891428 L 222.434398 96.580431 C 220.842585 96.388104 219.410361 96.232605 217.818547 96.232605 C 216.226733 96.232605 214.639011 96.077107 213.047197 96.077107 C 210.334157 96.077107 207.813444 95.921608 205.096312 95.921608 L 203.504498 95.921608 C 203.504498 95.455113 203.659996 95.144116 203.659996 94.640791 L 204.167413 86.067912 L 204.474318 79.242344 L 204.474318 72.572276 L 217.004226 72.572276 C 221.775576 72.572276 226.391427 72.416777 231.162777 72.416777 L 237.36635 72.416777 C 240.042562 72.416777 239.420567 57.795823 239.576066 53.683296 C 239.576066 52.557977 239.731564 51.588158 239.731564 50.50376 Z M 246.405725 49.689439 C 245.280407 51.743656 245.124908 56.359507 244.818003 59.539043 L 244.818003 68.926244 C 247.531044 68.926244 252.61339 68.615247 257.38474 68.267421 C 258.624636 68.267421 259.749955 67.956424 260.875273 67.956424 C 263.084989 67.956424 265.798029 67.645427 267.389843 68.615247 C 267.389843 68.926244 267.234345 69.237241 267.234345 69.548238 L 266.575522 72.572276 C 266.420024 73.542095 266.264525 74.626493 265.953528 75.596313 L 264.365806 81.959477 L 260.875273 94.640791 L 259.438958 100.53746 L 257.229242 111.320055 L 256.41492 114.847417 C 255.792926 116.905726 255.445101 119.270941 255.134104 121.521578 L 253.697788 128.036148 L 252.302393 135.172712 L 250.866078 141.998279 C 250.555081 144.212088 249.896258 146.458632 249.429763 148.516942 L 248.967359 151.229982 C 248.153038 154.565016 247.027719 158.059641 247.027719 160.887259 L 247.027719 161.857079 C 247.027719 164.574212 258.624636 165.814108 262.307497 165.814108 C 267.389843 165.814108 269.137156 163.75989 270.221554 155.342509 L 270.880376 151.696478 C 271.035875 150.415661 271.50237 149.134844 271.657869 148.050446 L 272.316692 144.715412 C 272.783187 142.620274 273.245591 140.877053 273.748915 139.633065 C 278.675763 138.352248 284.842508 138.974242 289.769356 138.974242 L 298.84556 138.974242 C 299.623053 138.974242 300.281876 138.818744 300.899778 138.818744 C 301.521772 138.818744 302.180595 138.663245 302.802589 138.663245 C 303.61691 141.535876 305.208724 145.644311 305.208724 148.205945 L 306.137623 151.696478 L 307.262941 155.031512 L 308.347339 158.211048 C 308.699257 158.833042 308.699257 159.491865 309.006162 160.113859 L 310.13148 162.982398 C 310.442477 163.915389 310.908973 164.885209 311.375468 165.658609 L 314.244007 164.885209 L 316.142726 164.418713 C 316.96114 164.418713 317.579042 164.574212 318.201036 164.574212 C 323.283383 163.604392 331.389767 162.826899 333.480813 160.735853 C 333.132987 159.95836 332.510993 158.833042 332.355495 158.059641 L 331.234268 153.44379 L 330.767773 151.385481 C 330.767773 151.037655 330.612274 150.726658 330.612274 150.415661 C 330.612274 149.486762 330.767773 148.361443 330.767773 147.391623 L 330.456776 145.955308 C 330.301277 145.181907 329.99028 144.367586 329.642454 143.590093 L 326.966243 135.950205 C 326.618417 134.861715 326.30742 133.891895 325.840924 132.770669 L 324.560107 129.431543 C 323.631208 127.066328 322.972386 124.856612 322.039394 122.294978 L 320.914076 118.804445 L 318.859858 112.600872 L 318.201036 110.542563 C 317.73454 108.954841 317.268045 107.207528 316.96114 105.464308 L 315.835821 99.256643 L 314.088509 91.653583 L 312.496695 85.139013 C 312.18979 83.702697 311.682373 82.270474 311.21997 80.834158 L 310.286979 77.654622 L 309.317159 74.626493 L 307.573938 68.267421 L 306.44862 64.154894 C 307.107443 64.154894 307.884936 63.999396 308.543758 63.999396 L 311.682373 63.999396 C 312.807692 63.999396 313.777512 63.843897 314.866001 63.843897 C 315.99132 63.843897 317.112546 63.843897 318.201036 63.688399 L 321.380572 63.185075 C 321.728397 63.185075 322.194893 63.185075 322.50589 63.029576 C 323.786707 62.411674 323.631208 60.975359 323.631208 59.383545 C 323.631208 56.515006 323.942205 46.043407 322.039394 46.043407 C 315.99132 46.043407 309.006162 46.661309 304.390311 46.661309 L 301.67727 46.661309 C 296.13252 46.661309 291.050173 47.786628 286.900817 47.786628 L 278.483436 48.253123 C 277.705944 48.408622 277.088041 48.408622 276.27372 48.408622 L 269.755058 48.408622 C 268.62974 48.408622 267.70084 48.600949 266.575522 48.600949 L 261.182178 49.067444 C 256.877324 49.067444 252.768889 49.689439 248.464035 49.689439 Z M 300.437374 125.167609 L 281.507474 125.167609 C 279.453256 125.167609 277.705944 125.012111 275.807225 125.012111 L 273.401089 125.012111 L 274.992903 116.439231 C 274.992903 115.62491 275.496228 114.499591 275.651726 113.726191 L 276.580625 109.110339 L 278.327938 101.818276 C 278.327938 98.172245 279.919752 94.174296 280.734073 90.839261 L 282.321795 84.635688 L 284.224606 77.499124 L 284.687009 75.751811 C 285.153505 74.16409 285.656829 72.572276 285.967826 70.980462 C 287.715139 72.727774 288.488539 77.499124 288.840457 79.397843 L 289.147362 81.300654 C 289.302861 82.270474 289.769356 83.043874 289.924855 84.013694 L 290.583678 86.882233 L 291.205672 89.558445 L 291.672167 91.461256 C 291.823574 92.431075 292.33099 93.245397 292.486489 94.174296 L 293.763213 99.56764 C 293.763213 100.848457 294.540706 101.973775 294.696205 103.2505 L 295.977021 108.799342 C 296.13252 109.769162 296.594924 110.542563 296.750422 111.512382 L 297.253746 113.259695 C 297.564743 114.847417 297.87574 116.246904 298.342236 117.834626 L 299.623053 122.450477 C 299.778551 123.264798 299.929958 124.353288 300.437374 125.167609 Z M 384.611186 47.631129 C 385.114511 49.222943 385.114511 51.588158 384.766685 54.456696 C 384.766685 54.923192 384.611186 55.27511 384.611186 55.737513 L 383.678195 61.286356 C 382.708375 68.459749 379.52884 75.440814 376.852628 82.114975 L 375.571811 85.294511 L 374.135496 88.318548 L 371.266957 93.867391 C 370.489464 95.144116 369.830641 96.580431 369.057241 97.668921 L 366.806604 100.692958 C 365.877705 101.973775 364.907885 102.902674 363.974894 103.716995 L 361.879756 104.842314 C 361.879756 102.591677 361.879756 97.513422 361.417352 90.376858 L 361.417352 84.791187 C 361.417352 74.93749 361.724257 63.5329 361.724257 53.024473 L 361.724257 48.253123 C 361.724257 46.198906 361.879756 44.296095 361.879756 42.397376 L 361.879756 33.824496 C 361.879756 32.854676 361.724257 31.884856 361.724257 31.107364 L 361.724257 29.053146 C 361.568759 26.184607 360.950857 24.281796 359.514541 23.000979 C 344.738088 21.257759 339.966739 21.879753 336.320707 21.879753 C 336.320707 27.154427 336.476206 32.232682 336.476206 37.470527 L 336.476206 42.552874 C 336.476206 43.481773 336.631704 44.451593 336.631704 45.421413 L 336.631704 47.47563 C 336.631704 48.911946 336.787203 50.348261 336.787203 51.935983 L 336.787203 62.256175 C 336.787203 63.688399 336.942701 65.124714 336.942701 66.520109 L 336.942701 128.813641 C 336.942701 131.178855 337.135028 133.740489 337.135028 136.105703 C 337.135028 141.02846 337.290527 146.307226 337.290527 150.260162 C 337.290527 151.385481 337.446025 152.47397 337.446025 153.44379 C 337.446025 157.089822 337.912521 160.735853 337.912521 164.418713 L 338.219426 169.963463 C 344.427091 169.963463 351.719154 169.807965 357.304825 168.375742 L 359.981037 167.909246 L 359.981037 164.885209 C 359.981037 160.113859 360.136535 152.821796 360.136535 146.925128 L 360.136535 129.431543 C 372.236777 137.382428 377.163625 144.715412 381.583057 154.565016 C 383.174871 157.748644 384.611186 161.394676 386.198908 164.070887 L 389.227038 170.118962 C 389.533943 170.896455 390.000438 171.555277 390.348264 172.177271 L 391.436754 174.07599 C 391.940078 175.04581 392.562072 175.823303 393.024476 176.482126 L 412.883275 174.423816 L 415.600408 173.920492 L 414.630588 172.021773 L 411.954376 166.472931 L 403.536995 149.486762 L 399.387639 141.998279 C 398.610147 140.566056 397.951324 139.129741 397.177923 137.889845 L 394.149794 132.962996 L 391.940078 129.627962 C 390.503762 127.532824 389.071539 125.94101 387.635224 124.197789 L 386.354407 122.761474 C 385.114511 121.521578 383.833694 120.396259 382.397378 119.581938 L 381.120654 118.959944 C 380.809656 118.648947 380.187662 118.493448 379.839837 118.493448 C 381.427559 113.881689 383.019372 113.104196 385.581006 110.080159 L 389.533943 105.464308 L 392.251075 101.662778 C 393.994295 98.945646 395.741608 96.232605 397.177923 93.400895 L 400.668456 85.916505 L 401.949273 82.888376 C 402.722674 80.834158 403.692494 78.931347 404.314488 76.87713 L 406.716531 69.39274 C 407.183026 67.800926 407.805021 65.59121 408.116018 63.843897 L 408.619342 61.130857 C 409.859238 56.204009 410.055657 50.659258 409.70374 47.786628 C 408.308345 47.631129 406.872029 47.47563 405.284307 47.47563 C 400.201961 47.320132 394.927287 47.786628 392.095576 47.786628 L 389.84494 47.786628 C 387.946221 47.631129 385.581006 47.47563 384.611186 47.631129 Z M 449.589114 55.893012 C 449.74052 55.27511 449.74052 54.612195 449.74052 54.149791 C 449.74052 52.091482 449.433615 50.348261 448.811621 49.067444 C 442.141552 49.067444 435.275064 49.378442 428.449497 49.378442 C 427.516506 49.378442 426.546686 49.222943 425.617787 49.222943 C 423.678147 49.222943 420.343113 48.911946 420.032116 51.27716 L 422.745156 111.667881 C 423.056153 118.959944 423.678147 124.508786 425.421368 125.478606 L 433.376345 125.94101 C 434.65307 125.94101 435.778389 126.096508 437.022377 126.096508 C 439.113423 126.096508 440.39424 125.630013 441.016234 124.701113 C 442.141552 105.464308 444.040271 94.329794 447.064309 73.542095 Z M 416.85258 137.231022 C 416.85258 138.045343 416.697082 140.255059 416.697082 141.691374 C 416.697082 147.236125 420.343113 153.595197 431.007039 153.595197 L 432.754351 153.595197 C 441.789635 153.595197 447.9973 152.821796 449.74052 150.882156 C 449.74052 148.983437 449.433615 147.080626 448.811621 145.181907 C 446.871981 138.974242 445.128761 134.358391 430.544635 134.358391 C 426.084283 134.358391 422.086333 135.483709 416.85258 137.231022 Z M 416.85258 137.231022 " stroke="#cae8ff" stroke-width="11.91555" stroke-opacity="1" stroke-miterlimit="4"/><g fill="#1a1a18" fill-opacity="1"><g transform="translate(614.954481, 770.544611)"><g><path d="M 15.164062 -70.671875 C 14.710938 -67.941406 15.925781 -64.910156 15.773438 -61.875 C 15.773438 -59.753906 15.46875 -57.628906 15.46875 -55.507812 C 15.46875 -51.257812 16.074219 -46.863281 16.226562 -42.617188 L 16.226562 -39.277344 C 16.226562 -36.699219 16.378906 -34.273438 16.378906 -31.695312 C 16.378906 -30.027344 16.53125 -28.359375 16.53125 -26.84375 C 16.683594 -24.417969 16.832031 -22.292969 16.832031 -19.867188 L 16.832031 -11.375 C 16.832031 -9.707031 16.683594 -8.1875 16.683594 -6.519531 L 16.683594 4.246094 C 16.683594 8.039062 16.832031 11.980469 16.832031 15.773438 C 16.832031 17.289062 16.683594 18.804688 16.683594 20.320312 L 16.683594 23.507812 C 16.683594 26.996094 18.804688 26.539062 22.445312 26.539062 L 27.90625 26.539062 C 30.027344 26.539062 32.300781 26.085938 34.121094 25.78125 L 37.308594 25.476562 C 37.308594 24.566406 37.15625 23.660156 37.15625 22.75 L 36.550781 12.890625 C 36.550781 4.09375 36.09375 -5.003906 36.09375 -14.863281 C 36.09375 -19.714844 35.941406 -26.085938 38.367188 -28.207031 C 39.128906 -28.207031 40.039062 -28.054688 40.796875 -28.054688 L 41.855469 -28.054688 C 44.433594 -28.359375 47.164062 -28.359375 49.742188 -28.359375 C 50.804688 -28.359375 51.867188 -28.207031 53.078125 -28.207031 L 54.292969 -28.207031 C 56.71875 -28.511719 59.601562 -28.816406 61.875 -28.816406 C 62.480469 -33.0625 61.875 -37.003906 62.332031 -41.25 C 62.332031 -42.917969 62.179688 -43.675781 60.359375 -43.675781 L 59.296875 -43.675781 C 56.566406 -43.675781 54.140625 -43.828125 51.410156 -43.828125 L 47.316406 -43.828125 C 46.101562 -43.828125 44.738281 -43.980469 43.375 -43.828125 L 38.367188 -43.828125 L 38.367188 -45.042969 C 38.367188 -46.558594 38.21875 -48.074219 38.21875 -49.589844 L 38.21875 -50.652344 C 38.21875 -56.71875 37.003906 -62.632812 37.003906 -68.699219 L 37.003906 -69.761719 C 37.15625 -70.066406 37.308594 -70.519531 37.308594 -70.671875 L 38.21875 -70.671875 C 38.824219 -70.671875 39.582031 -70.519531 40.339844 -70.519531 C 41.402344 -70.519531 42.464844 -70.367188 43.523438 -70.367188 L 58.234375 -70.367188 C 62.332031 -70.367188 66.878906 -70.367188 70.976562 -69.914062 C 71.429688 -73.855469 71.277344 -80.378906 71.582031 -85.382812 C 71.734375 -86.445312 71.734375 -87.203125 71.734375 -87.960938 C 70.976562 -88.113281 69.914062 -88.265625 68.851562 -88.265625 L 66.121094 -88.265625 C 59.753906 -88.265625 54.140625 -87.65625 50.652344 -87.65625 L 48.378906 -87.65625 C 45.648438 -87.65625 43.070312 -87.960938 40.339844 -88.113281 L 37.15625 -88.113281 C 36.398438 -88.113281 35.640625 -87.960938 34.878906 -87.960938 L 22.292969 -87.960938 C 19.714844 -87.960938 19.5625 -88.113281 18.503906 -88.113281 L 15.773438 -88.113281 L 13.347656 -87.808594 C 11.070312 -87.503906 8.796875 -87.203125 6.371094 -87.050781 L 6.824219 -70.824219 C 8.039062 -70.519531 9.25 -70.671875 10.3125 -70.671875 C 11.375 -70.671875 12.585938 -70.824219 13.800781 -70.824219 C 14.253906 -70.824219 14.710938 -70.671875 15.164062 -70.671875 Z M 15.164062 -70.671875 "/></g></g></g><g fill="#1a1a18" fill-opacity="1"><g transform="translate(691.838922, 770.544611)"><g><path d="M 9.25 -70.519531 L 9.097656 -48.226562 C 9.097656 -47.316406 8.949219 -46.40625 8.949219 -45.496094 L 8.949219 -39.128906 C 8.949219 -35.488281 8.796875 -32 8.796875 -28.664062 L 8.796875 -17.441406 C 8.796875 -13.953125 9.097656 -12.585938 9.25 -10.464844 L 9.25 -8.1875 C 9.25 -4.703125 9.554688 -1.214844 9.554688 2.273438 L 9.554688 3.488281 C 14.863281 3.792969 22.597656 5.914062 31.242188 5.914062 L 32.152344 1.363281 L 32.152344 -10.3125 C 32.152344 -13.648438 32 -16.53125 31.542969 -19.714844 L 30.632812 -26.996094 L 30.632812 -34.273438 L 32.453125 -34.273438 C 35.183594 -34.273438 36.09375 -34.878906 39.128906 -34.878906 C 42.160156 -34.878906 45.34375 -29.875 47.316406 -25.328125 L 48.378906 -22.75 C 49.742188 -18.503906 49.894531 -15.621094 50.351562 -12.132812 C 50.804688 -5.308594 51.109375 -2.882812 51.5625 -1.214844 L 52.167969 1.363281 L 52.777344 3.792969 L 54.140625 7.886719 L 55.050781 9.707031 C 60.964844 19.714844 63.695312 19.714844 67.183594 21.535156 L 69.609375 22.75 C 77.042969 25.78125 86.59375 26.386719 94.480469 26.386719 L 101.003906 26.386719 C 101.003906 26.386719 101.914062 26.238281 104.492188 26.238281 L 104.035156 9.402344 L 91.75 8.796875 C 90.691406 8.949219 89.78125 8.949219 88.871094 8.949219 C 87.808594 8.949219 86.898438 8.796875 85.988281 8.796875 L 80.074219 7.582031 C 78.710938 7.128906 77.648438 6.371094 76.585938 5.609375 L 75.070312 4.246094 C 74.765625 3.640625 74.160156 3.183594 73.855469 2.578125 L 72.945312 -1.820312 L 67.183594 -26.84375 L 66.273438 -29.421875 C 65.820312 -31.242188 64.757812 -32.910156 63.847656 -34.425781 L 63.089844 -35.488281 C 62.332031 -36.550781 61.875 -37.308594 60.964844 -38.21875 C 61.269531 -38.21875 63.390625 -38.976562 65.667969 -40.339844 L 67.789062 -41.855469 C 70.066406 -43.828125 71.886719 -46.101562 73.097656 -49.289062 L 74.160156 -54.445312 C 74.765625 -58.691406 75.222656 -62.9375 75.222656 -67.335938 C 75.222656 -69.761719 74.765625 -73.703125 73.703125 -76.28125 L 72.339844 -79.921875 C 69.003906 -86.292969 67.183594 -88.71875 59.449219 -90.234375 L 53.230469 -91.601562 C 49.289062 -92.207031 45.195312 -93.117188 44.285156 -93.269531 L 21.230469 -93.269531 C 15.773438 -93.269531 12.585938 -91.75 9.402344 -91.75 L 4.246094 -91.601562 L 3.335938 -71.429688 Z M 30.632812 -51.714844 C 30.179688 -53.535156 29.722656 -55.808594 29.722656 -57.628906 C 29.722656 -58.085938 29.574219 -58.386719 29.574219 -58.84375 L 29.574219 -62.632812 C 29.574219 -63.089844 29.421875 -63.390625 29.421875 -63.847656 L 29.421875 -68.851562 C 29.421875 -69.914062 29.574219 -71.125 29.574219 -72.1875 C 29.574219 -72.945312 29.875 -73.703125 29.875 -74.464844 C 29.875 -75.675781 30.027344 -76.738281 30.027344 -77.949219 C 31.242188 -78.101562 32.300781 -78.253906 33.515625 -78.253906 L 35.03125 -78.253906 C 35.941406 -78.253906 37.003906 -78.101562 38.066406 -78.101562 C 49.589844 -78.101562 47.011719 -75.371094 47.316406 -74.917969 L 48.378906 -73.703125 L 49.136719 -72.1875 C 49.441406 -71.582031 49.589844 -70.976562 49.742188 -70.367188 L 50.046875 -69.003906 L 50.046875 -60.511719 C 50.046875 -57.476562 48.074219 -52.019531 42.464844 -52.019531 C 42.160156 -52.019531 41.855469 -52.167969 41.554688 -52.167969 L 38.976562 -52.167969 C 38.21875 -52.167969 37.308594 -52.019531 36.398438 -52.019531 C 35.789062 -52.019531 35.03125 -51.867188 34.425781 -51.867188 C 33.363281 -51.867188 32.453125 -51.714844 31.542969 -51.714844 Z M 30.632812 -51.714844 "/></g></g></g><g fill="#1a1a18" fill-opacity="1"><g transform="translate(770.846402, 770.544611)"><g><path d="M 72.945312 -87.355469 C 68.851562 -88.566406 60.054688 -89.023438 48.832031 -89.023438 L 47.46875 -89.023438 C 43.523438 -89.023438 38.824219 -88.871094 35.03125 -88.871094 L 30.027344 -88.871094 C 24.417969 -88.871094 18.652344 -89.023438 13.648438 -89.023438 L 3.941406 -89.023438 C 3.941406 -87.960938 4.09375 -86.59375 4.09375 -85.535156 C 4.09375 -80.226562 3.792969 -75.828125 3.792969 -72.339844 C 3.792969 -69.308594 4.09375 -67.335938 4.09375 -64.605469 C 5.003906 -64.605469 6.066406 -64.757812 6.976562 -64.757812 L 12.738281 -65.058594 L 14.105469 -65.058594 C 14.105469 -64.757812 13.953125 -64.605469 13.953125 -64.300781 C 13.953125 -61.269531 13.648438 -58.085938 13.347656 -54.597656 L 13.347656 -51.714844 C 13.347656 -47.164062 12.890625 -42.617188 12.890625 -37.460938 L 12.890625 -31.089844 C 12.890625 -27.753906 12.738281 -24.417969 12.738281 -20.929688 L 12.738281 -17.742188 C 12.738281 -16.074219 12.585938 -14.40625 12.585938 -12.738281 C 12.585938 -10.464844 12.4375 -8.339844 12.285156 -6.066406 C 12.285156 -5.003906 12.132812 -3.792969 12.132812 -2.730469 C 11.828125 0 11.675781 2.578125 11.675781 5.308594 L 11.375 9.707031 L 10.765625 14.863281 L 10.464844 17.136719 L 11.375 24.566406 C 15.925781 24.566406 20.171875 24.417969 24.113281 24.265625 L 25.476562 24.265625 C 35.335938 24.871094 43.980469 25.175781 52.167969 25.175781 L 56.113281 25.175781 C 62.785156 25.175781 69.308594 24.566406 75.070312 24.566406 L 78.101562 24.566406 C 84.320312 24.566406 90.234375 24.265625 94.785156 24.265625 C 95.390625 18.046875 95.847656 12.738281 96.148438 8.1875 L 46.101562 8.1875 C 40.796875 8.1875 37.609375 8.039062 33.210938 7.582031 C 33.210938 6.066406 33.363281 4.703125 33.363281 2.882812 C 33.363281 1.515625 33.515625 0 33.515625 -1.515625 C 33.515625 -2.578125 33.667969 -3.640625 33.667969 -4.703125 C 33.667969 -6.976562 33.972656 -9.097656 33.972656 -11.375 C 33.972656 -12.4375 34.121094 -13.648438 34.121094 -14.710938 C 34.121094 -15.773438 34.273438 -16.832031 34.273438 -17.894531 C 34.273438 -18.957031 34.425781 -20.019531 34.425781 -21.082031 L 34.878906 -29.117188 C 36.398438 -29.117188 37.914062 -29.269531 39.277344 -29.269531 C 41.25 -29.269531 43.523438 -29.722656 46.101562 -29.722656 C 47.316406 -29.722656 48.679688 -29.722656 50.199219 -29.875 C 52.167969 -29.722656 55.050781 -29.574219 57.78125 -29.574219 L 62.9375 -29.574219 C 75.222656 -29.574219 71.277344 -40.644531 71.277344 -42.617188 C 68.246094 -42.617188 65.363281 -42.765625 62.332031 -43.070312 L 56.414062 -43.375 C 54.898438 -43.523438 53.535156 -43.675781 52.019531 -43.675781 C 50.5 -43.675781 48.984375 -43.828125 47.46875 -43.828125 C 44.890625 -43.828125 42.464844 -43.980469 39.886719 -43.980469 L 38.367188 -43.980469 C 38.367188 -44.433594 38.519531 -44.738281 38.519531 -45.195312 L 38.976562 -53.382812 L 39.277344 -59.902344 L 39.277344 -66.273438 L 51.257812 -66.273438 C 55.808594 -66.273438 60.207031 -66.425781 64.757812 -66.425781 L 70.671875 -66.425781 C 73.25 -66.425781 72.644531 -80.378906 72.792969 -84.320312 C 72.792969 -85.382812 72.945312 -86.292969 72.945312 -87.355469 Z M 72.945312 -87.355469 "/></g></g></g><g fill="#1a1a18" fill-opacity="1"><g transform="translate(846.972615, 770.544611)"><g><path d="M 3.183594 -88.113281 C 2.125 -86.140625 1.972656 -81.742188 1.667969 -78.710938 L 1.667969 -69.761719 C 4.246094 -69.761719 9.097656 -70.066406 13.648438 -70.367188 C 14.863281 -70.367188 15.925781 -70.671875 16.984375 -70.671875 C 19.109375 -70.671875 21.6875 -70.976562 23.203125 -70.066406 C 23.203125 -69.761719 23.050781 -69.457031 23.050781 -69.15625 L 22.445312 -66.273438 C 22.292969 -65.363281 22.140625 -64.300781 21.839844 -63.390625 L 20.320312 -57.324219 L 16.984375 -45.195312 L 15.621094 -39.582031 L 13.496094 -29.269531 L 12.738281 -25.933594 C 12.132812 -23.960938 11.828125 -21.6875 11.527344 -19.5625 L 10.160156 -13.347656 L 8.796875 -6.519531 L 7.429688 0 C 7.128906 2.125 6.519531 4.246094 6.066406 6.21875 L 5.609375 8.796875 C 4.851562 11.980469 3.792969 15.316406 3.792969 18.046875 L 3.792969 18.957031 C 3.792969 21.535156 14.863281 22.75 18.351562 22.75 C 23.203125 22.75 24.871094 20.777344 25.933594 12.738281 L 26.539062 9.25 C 26.691406 8.039062 27.144531 6.824219 27.296875 5.761719 L 27.90625 2.578125 C 28.359375 0.605469 28.816406 -1.0625 29.269531 -2.273438 C 33.972656 -3.488281 39.886719 -2.882812 44.585938 -2.882812 L 53.230469 -2.882812 C 53.988281 -2.882812 54.597656 -3.03125 55.203125 -3.03125 C 55.808594 -3.03125 56.414062 -3.183594 57.023438 -3.183594 C 57.78125 -0.453125 59.296875 3.488281 59.296875 5.914062 L 60.207031 9.25 L 61.269531 12.4375 L 62.332031 15.46875 C 62.632812 16.074219 62.632812 16.683594 62.9375 17.289062 L 64 20.019531 C 64.300781 20.929688 64.757812 21.839844 65.210938 22.597656 L 67.941406 21.839844 L 69.761719 21.382812 C 70.519531 21.382812 71.125 21.535156 71.734375 21.535156 C 76.585938 20.625 84.320312 19.867188 86.292969 17.894531 C 85.988281 17.136719 85.382812 16.074219 85.230469 15.316406 L 84.167969 10.917969 L 83.714844 8.949219 C 83.714844 8.644531 83.5625 8.339844 83.5625 8.039062 C 83.5625 7.128906 83.714844 6.066406 83.714844 5.15625 L 83.410156 3.792969 C 83.257812 3.03125 82.957031 2.273438 82.652344 1.515625 L 80.074219 -5.761719 C 79.769531 -6.824219 79.46875 -7.734375 79.011719 -8.796875 L 77.800781 -11.980469 C 76.890625 -14.253906 76.28125 -16.378906 75.371094 -18.804688 L 74.3125 -22.140625 L 72.339844 -28.054688 L 71.734375 -30.027344 C 71.277344 -31.542969 70.824219 -33.210938 70.519531 -34.878906 L 69.457031 -40.796875 L 67.789062 -48.074219 L 66.273438 -54.292969 C 65.96875 -55.65625 65.515625 -57.023438 65.058594 -58.386719 L 64.152344 -61.421875 L 63.242188 -64.300781 L 61.574219 -70.367188 L 60.511719 -74.3125 C 61.117188 -74.3125 61.875 -74.464844 62.480469 -74.464844 L 65.515625 -74.464844 C 66.578125 -74.464844 67.488281 -74.613281 68.546875 -74.613281 C 69.609375 -74.613281 70.671875 -74.613281 71.734375 -74.765625 L 74.765625 -75.222656 C 75.070312 -75.222656 75.523438 -75.222656 75.828125 -75.371094 C 77.042969 -75.980469 76.890625 -77.34375 76.890625 -78.859375 C 76.890625 -81.589844 77.191406 -91.601562 75.371094 -91.601562 C 69.609375 -91.601562 62.9375 -90.992188 58.539062 -90.992188 L 55.960938 -90.992188 C 50.652344 -90.992188 45.800781 -89.933594 41.855469 -89.933594 L 33.820312 -89.476562 C 33.0625 -89.324219 32.453125 -89.324219 31.695312 -89.324219 L 25.476562 -89.324219 C 24.417969 -89.324219 23.507812 -89.171875 22.445312 -89.171875 L 17.289062 -88.71875 C 13.195312 -88.71875 9.25 -88.113281 5.15625 -88.113281 Z M 54.746094 -16.074219 L 36.699219 -16.074219 C 34.730469 -16.074219 33.0625 -16.226562 31.242188 -16.226562 L 28.964844 -16.226562 L 30.484375 -24.417969 C 30.484375 -25.175781 30.9375 -26.238281 31.089844 -26.996094 L 32 -31.394531 L 33.667969 -38.367188 C 33.667969 -41.855469 35.183594 -45.648438 35.941406 -48.832031 L 37.460938 -54.746094 L 39.277344 -61.574219 L 39.734375 -63.242188 C 40.1875 -64.757812 40.644531 -66.273438 40.945312 -67.789062 C 42.617188 -66.121094 43.375 -61.574219 43.675781 -59.753906 L 43.980469 -57.933594 C 44.132812 -57.023438 44.585938 -56.265625 44.738281 -55.355469 L 45.34375 -52.625 L 45.953125 -50.046875 L 46.40625 -48.226562 C 46.558594 -47.316406 47.011719 -46.558594 47.164062 -45.648438 L 48.378906 -40.492188 C 48.378906 -39.277344 49.136719 -38.21875 49.289062 -37.003906 L 50.5 -31.695312 C 50.652344 -30.785156 51.109375 -30.027344 51.257812 -29.117188 L 51.714844 -27.449219 C 52.019531 -25.933594 52.320312 -24.566406 52.777344 -23.050781 L 53.988281 -18.652344 C 54.140625 -17.894531 54.292969 -16.832031 54.746094 -16.074219 Z M 54.746094 -16.074219 "/></g></g></g><g fill="#1a1a18" fill-opacity="1"><g transform="translate(929.619604, 770.544611)"><g><path d="M 52.472656 -90.082031 C 52.929688 -88.566406 52.929688 -86.292969 52.625 -83.5625 C 52.625 -83.105469 52.472656 -82.804688 52.472656 -82.347656 L 51.5625 -77.042969 C 50.652344 -70.214844 47.621094 -63.542969 45.042969 -57.175781 L 43.828125 -54.140625 L 42.464844 -51.257812 L 39.734375 -45.953125 C 38.976562 -44.738281 38.367188 -43.375 37.609375 -42.3125 L 35.488281 -39.429688 C 34.578125 -38.21875 33.667969 -37.308594 32.757812 -36.550781 L 30.785156 -35.488281 C 30.785156 -37.609375 30.785156 -42.464844 30.332031 -49.289062 L 30.332031 -54.597656 C 30.332031 -64 30.632812 -74.917969 30.632812 -84.925781 L 30.632812 -89.476562 C 30.632812 -91.449219 30.785156 -93.269531 30.785156 -95.089844 L 30.785156 -103.277344 C 30.785156 -104.1875 30.632812 -105.097656 30.632812 -105.855469 L 30.632812 -107.828125 C 30.484375 -110.558594 29.875 -112.378906 28.511719 -113.589844 C 14.40625 -115.257812 9.859375 -114.652344 6.371094 -114.652344 C 6.371094 -109.648438 6.519531 -104.792969 6.519531 -99.789062 L 6.519531 -94.9375 C 6.519531 -94.027344 6.671875 -93.117188 6.671875 -92.207031 L 6.671875 -90.234375 C 6.671875 -88.871094 6.824219 -87.503906 6.824219 -85.988281 L 6.824219 -76.132812 C 6.824219 -74.765625 6.976562 -73.402344 6.976562 -72.035156 L 6.976562 -12.585938 C 6.976562 -10.3125 7.128906 -7.886719 7.128906 -5.609375 C 7.128906 -0.910156 7.28125 4.09375 7.28125 7.886719 C 7.28125 8.949219 7.429688 10.007812 7.429688 10.917969 C 7.429688 14.40625 7.886719 17.894531 7.886719 21.382812 L 8.1875 26.691406 C 14.105469 26.691406 21.082031 26.539062 26.386719 25.175781 L 28.964844 24.71875 L 28.964844 21.839844 C 28.964844 17.289062 29.117188 10.3125 29.117188 4.703125 L 29.117188 -11.980469 C 40.644531 -4.398438 45.34375 2.578125 49.589844 11.980469 C 51.109375 15.015625 52.472656 18.503906 53.988281 21.082031 L 56.871094 26.84375 C 57.175781 27.601562 57.628906 28.207031 57.933594 28.816406 L 58.992188 30.632812 C 59.449219 31.542969 60.054688 32.300781 60.511719 32.910156 L 79.46875 30.9375 L 82.046875 30.484375 L 81.136719 28.664062 L 78.558594 23.355469 L 70.519531 7.128906 L 66.578125 0 C 65.820312 -1.363281 65.210938 -2.730469 64.453125 -3.941406 L 61.574219 -8.644531 L 59.449219 -11.828125 C 58.085938 -13.800781 56.71875 -15.316406 55.355469 -16.984375 L 54.140625 -18.351562 C 52.929688 -19.5625 51.714844 -20.625 50.351562 -21.382812 L 49.136719 -21.988281 C 48.832031 -22.292969 48.226562 -22.445312 47.921875 -22.445312 C 49.441406 -26.84375 50.957031 -27.601562 53.382812 -30.484375 L 57.175781 -34.878906 L 59.753906 -38.519531 C 61.421875 -41.097656 63.089844 -43.675781 64.453125 -46.40625 L 67.789062 -53.535156 L 69.003906 -56.414062 C 69.761719 -58.386719 70.671875 -60.207031 71.277344 -62.179688 L 73.554688 -69.308594 C 74.007812 -70.824219 74.613281 -72.945312 74.917969 -74.613281 L 75.371094 -77.191406 C 76.585938 -81.894531 76.738281 -87.203125 76.433594 -89.933594 C 75.070312 -90.082031 73.703125 -90.234375 72.1875 -90.234375 C 67.335938 -90.386719 62.332031 -89.933594 59.601562 -89.933594 L 57.476562 -89.933594 C 55.65625 -90.082031 53.382812 -90.234375 52.472656 -90.082031 Z M 52.472656 -90.082031 "/></g></g></g><g fill="#1a1a18" fill-opacity="1"><g transform="translate(1009.233652, 770.544611)"><g><path d="M 34.878906 -82.199219 C 35.03125 -82.804688 35.03125 -83.410156 35.03125 -83.867188 C 35.03125 -85.835938 34.730469 -87.503906 34.121094 -88.71875 C 27.753906 -88.71875 21.230469 -88.414062 14.710938 -88.414062 C 13.800781 -88.414062 12.890625 -88.566406 11.980469 -88.566406 C 10.160156 -88.566406 6.976562 -88.871094 6.671875 -86.59375 L 9.25 -28.964844 C 9.554688 -21.988281 10.160156 -16.683594 11.828125 -15.773438 L 19.410156 -15.316406 C 20.625 -15.316406 21.6875 -15.164062 22.898438 -15.164062 C 24.871094 -15.164062 26.085938 -15.621094 26.691406 -16.53125 C 27.753906 -34.878906 29.574219 -45.496094 32.453125 -65.363281 Z M 3.640625 -4.550781 C 3.640625 -3.792969 3.488281 -1.667969 3.488281 -0.304688 C 3.488281 5.003906 6.976562 11.070312 17.136719 11.070312 L 18.804688 11.070312 C 27.449219 11.070312 33.363281 10.3125 35.03125 8.492188 C 35.03125 6.671875 34.730469 4.851562 34.121094 3.03125 C 32.300781 -2.882812 30.632812 -7.28125 16.683594 -7.28125 C 12.4375 -7.28125 8.644531 -6.21875 3.640625 -4.550781 Z M 3.640625 -4.550781 "/></g></g></g></svg>