<svg xmlns="http://www.w3.org/2000/svg" xmlns:xlink="http://www.w3.org/1999/xlink" width="1080" zoomAndPan="magnify" viewBox="0 0 810 809.999993" height="1080" preserveAspectRatio="xMidYMid meet" version="1.0"><defs><clipPath id="712c1689fd"><path d="M 81 70 L 729 70 L 729 740.347656 L 81 740.347656 Z M 81 70 " clip-rule="nonzero"/></clipPath></defs><g clip-path="url(#712c1689fd)"><path fill="#e2e8f0" d="M 399.097656 72.761719 C 402.011719 69.847656 406.378906 69.847656 409.289062 72.761719 L 725.269531 382.894531 C 726.722656 384.351562 727.453125 385.804688 727.453125 387.988281 L 728.90625 434.582031 C 728.90625 436.765625 728.179688 438.222656 726.722656 439.679688 C 725.269531 441.136719 723.8125 441.863281 721.628906 441.863281 L 597.859375 441.863281 C 595.671875 441.863281 594.21875 441.136719 592.761719 439.679688 L 403.464844 251.851562 L 215.625 441.136719 C 214.171875 442.589844 212.714844 443.320312 210.53125 443.320312 L 118.066406 443.320312 C 115.882812 443.320312 112.96875 441.863281 112.242188 439.679688 L 82.390625 393.085938 C 80.9375 390.902344 80.9375 388.71875 81.664062 386.535156 C 81.664062 385.804688 82.390625 384.351562 83.121094 383.621094 Z M 728.90625 733.066406 L 727.453125 685.746094 C 727.453125 683.5625 726.722656 682.105469 725.269531 680.652344 L 409.289062 370.519531 C 406.378906 367.605469 402.007812 367.605469 399.097656 370.519531 L 83.121094 680.652344 C 82.390625 681.378906 81.664062 682.105469 81.664062 683.5625 C 80.9375 685.746094 80.9375 688.660156 82.390625 690.117188 L 112.242188 736.707031 C 112.96875 738.890625 115.882812 740.347656 118.066406 740.347656 L 210.53125 740.347656 C 212.714844 740.347656 214.171875 739.621094 215.625 738.164062 L 403.464844 550.335938 L 592.761719 738.164062 C 594.21875 739.621094 595.671875 740.347656 597.859375 740.347656 L 721.628906 740.347656 C 723.8125 740.347656 725.269531 739.621094 726.722656 738.164062 C 728.179688 736.707031 728.90625 735.253906 728.90625 733.066406 Z M 728.90625 733.066406 " fill-opacity="1" fill-rule="nonzero"/></g></svg>